<svg width="20" height="20" viewBox="0 0 20 20" fill="none" xmlns="http://www.w3.org/2000/svg">
<g clip-path="url(#clip0_43_4)">
<path d="M11.1762 0.543748C10.8142 0.350717 10.4103 0.249748 10 0.249748C9.58973 0.249748 9.18577 0.350717 8.82375 0.543748L1.32375 4.54375C0.923851 4.75698 0.589434 5.0749 0.356268 5.46351C0.123101 5.85212 -4.53083e-05 6.2968 1.25049e-08 6.75V7.1425L8.38625 12.0575L10 11.16L11.6138 12.0575L20 7.1425V6.75C20 6.2968 19.8769 5.85212 19.6437 5.46351C19.4106 5.0749 19.0761 4.75698 18.6762 4.54375L11.1762 0.543748ZM20 8.59125L12.8838 12.7625L20 16.715V8.59125ZM19.9262 18.105L10 12.59L0.07375 18.105C0.208755 18.6463 0.520927 19.1269 0.960587 19.4703C1.40025 19.8137 1.94213 20.0001 2.5 20H17.5C18.0579 20.0001 18.5998 19.8137 19.0394 19.4703C19.4791 19.1269 19.7912 18.6463 19.9262 18.105ZM1.25049e-08 16.7162L7.11625 12.7625L1.25049e-08 8.59125V16.7162Z" fill="currentColor"/>
</g>
<defs>
<clipPath id="clip0_43_4">
<rect width="20" height="20" fill="white"/>
</clipPath>
</defs>
</svg>
