<svg width="28" height="34" viewBox="0 0 28 34" fill="none" xmlns="http://www.w3.org/2000/svg">
<path d="M0.104802 0.761047C0.251292 0.260731 0.419294 0.0714454 0.969628 0H7.40393C7.74879 0.171365 7.90549 0.29819 8.02661 0.657268V10.1012C8.0321 10.1914 8.13039 10.2395 8.13039 10.2395L18.0932 0.242151C18.2366 0.132147 18.3368 0.0830665 18.5775 0.034593H27.6063C27.9541 0.214103 28.0364 0.374952 27.9868 0.761047L9.34114 19.9602C8.76806 20.7629 8.61581 21.2574 8.47631 22.1741C8.76786 24.849 9.69101 25.7658 12.1086 26.8096C15.1887 27.6063 16.837 27.2363 19.6499 25.2529C21.6135 23.3757 21.9732 22.1936 21.2757 19.8564C20.7696 18.8427 19.6972 17.7492 17.1246 15.3593C16.9684 14.9319 17.0099 14.736 17.5051 14.5291C19.2478 14.1087 20.2249 14.155 21.9676 14.5291C23.8583 15.0383 24.6982 15.5809 25.9112 16.8814C27.9981 19.6651 28.1916 21.4144 27.5025 24.734C25.84 28.6159 24.331 30.2417 20.5147 32.0677C16.2237 33.6655 13.8149 33.7708 9.51411 32.6212C3.55657 29.8598 0.519918 22.9698 0.173988 21.2055C-0.171941 19.4413 0.104802 0.761047 0.104802 0.761047Z" fill="white"/>
</svg>
