<svg width="134" height="32" viewBox="0 0 134 32" fill="none" xmlns="http://www.w3.org/2000/svg">
<path d="M0.800972 0.729374C0.941365 0.24988 1.10237 0.068472 1.62981 0H7.79633C8.12683 0.164233 8.27701 0.28578 8.39309 0.629914V9.68078C8.39836 9.76722 8.49255 9.81339 8.49255 9.81339L18.0407 0.232073C18.1781 0.126647 18.2742 0.0796094 18.5049 0.0331533H27.1579C27.4912 0.205192 27.5701 0.359348 27.5226 0.729374L9.65292 19.1295C9.10369 19.8988 8.95777 20.3727 8.82408 21.2513C9.10349 23.8148 9.98823 24.6934 12.3052 25.6938C15.2571 26.4574 16.8369 26.1028 19.5326 24.2019C21.4146 22.4029 21.7592 21.27 21.0908 19.03C20.6057 18.0585 19.578 17.0105 17.1124 14.7201C16.9628 14.3105 17.0025 14.1227 17.4771 13.9244C19.1473 13.5215 20.0837 13.5659 21.7539 13.9244C23.5659 14.4125 24.3708 14.9325 25.5334 16.1788C27.5334 18.8467 27.7189 20.5232 27.0584 23.7046C25.4651 27.4249 24.0189 28.9831 20.3615 30.7332C16.249 32.2645 13.9405 32.3653 9.81868 31.2636C4.10908 28.6171 1.19881 22.0138 0.867278 20.323C0.535746 18.6322 0.800972 0.729374 0.800972 0.729374Z" fill="white"/>
<path d="M45.2413 24.2264C44.8163 23.6146 44.4137 23.0414 44.0338 22.5069C43.6602 21.9659 43.2931 21.4346 42.9325 20.9129L41.1163 18.3143H40.2276V15.8219H41.0777L42.7006 13.6966C43.087 13.1943 43.4702 12.6951 43.8502 12.1992C44.2302 11.6969 44.6713 11.1141 45.1737 10.4507H48.835C48.236 11.1785 47.65 11.8933 47.0768 12.5953C46.51 13.2973 45.9401 14.0057 45.3669 14.7206L43.1837 17.4158L43.1257 16.0151L45.5504 19.3672C45.924 19.8825 46.3233 20.4363 46.7483 21.0288C47.1798 21.6213 47.5984 22.1977 48.0042 22.758C48.4099 23.3183 48.7674 23.8078 49.0765 24.2264H45.2413ZM37.3101 24.2264C37.3101 23.4858 37.3101 22.7677 37.3101 22.0721C37.3101 21.3766 37.3101 20.5973 37.3101 19.7343V15.0587C37.3101 14.17 37.3101 13.3681 37.3101 12.6533C37.3101 11.9384 37.3101 11.2042 37.3101 10.4507H40.4787C40.4787 11.2042 40.4787 11.9384 40.4787 12.6533C40.4787 13.3681 40.4787 14.17 40.4787 15.0587V19.7343C40.4787 20.5973 40.4787 21.3766 40.4787 22.0721C40.4787 22.7677 40.4787 23.4858 40.4787 24.2264H37.3101ZM57.369 24.4872C56.126 24.4872 55.0505 24.2973 54.1424 23.9173C53.2344 23.5309 52.4873 23.006 51.9012 22.3426C51.3152 21.6728 50.8772 20.9097 50.5874 20.0531C50.3041 19.1966 50.1624 18.2949 50.1624 17.3482C50.1624 16.0086 50.4264 14.7979 50.9545 13.7159C51.4891 12.6275 52.2812 11.7645 53.331 11.1269C54.3872 10.4894 55.7042 10.1706 57.2821 10.1706C58.48 10.1706 59.5265 10.3573 60.4217 10.7309C61.3169 11.098 62.0607 11.61 62.6532 12.2669C63.2522 12.9238 63.6998 13.6837 63.996 14.5467C64.2923 15.4097 64.4404 16.3371 64.4404 17.3289C64.4404 18.7007 64.1667 19.9243 63.6193 20.9998C63.0783 22.0754 62.2829 22.9255 61.2332 23.5502C60.1834 24.1749 58.8953 24.4872 57.369 24.4872ZM57.3207 21.8693C57.9583 21.8693 58.5154 21.7501 58.992 21.5118C59.4685 21.2671 59.8646 20.9322 60.1802 20.5072C60.4958 20.0821 60.7308 19.5991 60.8854 19.0581C61.0464 18.5107 61.1269 17.9343 61.1269 17.3289C61.1269 16.6913 61.04 16.0988 60.8661 15.5514C60.6986 14.9975 60.4507 14.5145 60.1222 14.1023C59.8002 13.6902 59.4041 13.3681 58.934 13.1363C58.4639 12.9044 57.9261 12.7885 57.3207 12.7885C56.696 12.7885 56.1421 12.9077 55.6591 13.146C55.1825 13.3842 54.7832 13.7159 54.4612 14.141C54.1392 14.5596 53.8945 15.0426 53.727 15.59C53.5596 16.1375 53.4759 16.7171 53.4759 17.3289C53.4759 17.9407 53.5564 18.5203 53.7174 19.0678C53.8784 19.6087 54.1167 20.0918 54.4323 20.5168C54.7543 20.9354 55.1536 21.2671 55.6301 21.5118C56.1132 21.7501 56.6767 21.8693 57.3207 21.8693ZM67.3086 24.2264C67.3086 23.4858 67.3086 22.7677 67.3086 22.0721C67.3086 21.3766 67.3086 20.5973 67.3086 19.7343V15.0587C67.3086 14.17 67.3086 13.3681 67.3086 12.6533C67.3086 11.9384 67.3086 11.2042 67.3086 10.4507C67.8496 10.4507 68.4164 10.4507 69.0089 10.4507C69.6078 10.4507 70.2228 10.4507 70.854 10.4507C71.4916 10.4507 72.1356 10.4507 72.7861 10.4507C73.8358 10.4507 74.7697 10.6021 75.5876 10.9047C76.4055 11.2074 77.0946 11.6518 77.6549 12.2379C78.2216 12.8239 78.6531 13.542 78.9494 14.3921C79.2456 15.2358 79.3938 16.2019 79.3938 17.2903C79.3938 18.2627 79.2617 19.1708 78.9977 20.0145C78.7401 20.8517 78.3247 21.5859 77.7515 22.2171C77.1848 22.8482 76.4345 23.3409 75.5006 23.6951C74.5668 24.0493 73.4269 24.2264 72.0809 24.2264C71.4626 24.2264 70.883 24.2264 70.342 24.2264C69.801 24.2264 69.2826 24.2264 68.7867 24.2264C68.2908 24.2264 67.7981 24.2264 67.3086 24.2264ZM70.4869 21.6857H72.0712C73.063 21.6857 73.8487 21.4925 74.4283 21.1061C75.0144 20.7197 75.4362 20.1916 75.6938 19.5218C75.9515 18.852 76.0803 18.0953 76.0803 17.2516C76.0803 16.614 76.003 16.0344 75.8484 15.5127C75.7003 14.9911 75.4684 14.5435 75.1529 14.17C74.8437 13.79 74.4477 13.5002 73.9646 13.3005C73.4816 13.0944 72.9052 12.9914 72.2354 12.9914H70.4869C70.4869 13.4229 70.4869 13.8608 70.4869 14.3052C70.4869 14.7431 70.4869 15.2423 70.4869 15.8026V18.9712C70.4869 19.5057 70.4869 19.9887 70.4869 20.4202C70.4869 20.8517 70.4869 21.2736 70.4869 21.6857ZM80.71 24.2264C80.9547 23.4858 81.2091 22.7065 81.4732 21.8886C81.7437 21.0707 81.998 20.2946 82.2363 19.5604L83.7917 14.8365C84.0686 13.98 84.3198 13.2104 84.5452 12.5277C84.7706 11.8386 84.996 11.1463 85.2214 10.4507H89.3174C89.5492 11.172 89.7746 11.874 89.9936 12.5567C90.219 13.2393 90.4702 13.9993 90.7471 14.8365L92.2831 19.5701C92.5343 20.3301 92.7887 21.1125 93.0463 21.9176C93.3103 22.7226 93.5615 23.4922 93.7998 24.2264H90.5153C90.3092 23.4922 90.0967 22.7419 89.8777 21.9755C89.6587 21.2027 89.4494 20.4717 89.2498 19.7826L87.3563 13.146H87.1245L85.2117 19.715C85.0056 20.4299 84.7867 21.1802 84.5548 21.9659C84.3294 22.7452 84.1104 23.4987 83.8979 24.2264H80.71ZM84.0332 21.3476L84.3713 18.9712H90.5249L90.7954 21.3476H84.0332ZM96.3163 24.2264C96.3163 23.4858 96.3163 22.7677 96.3163 22.0721C96.3163 21.3766 96.3163 20.5973 96.3163 19.7343V15.0587C96.3163 14.17 96.3163 13.3681 96.3163 12.6533C96.3163 11.9384 96.3163 11.2042 96.3163 10.4507C96.7349 10.4507 97.2276 10.4507 97.7944 10.4507C98.3676 10.4507 98.9794 10.4507 99.6298 10.4507C100.28 10.4507 100.937 10.4507 101.601 10.4507C102.721 10.4507 103.668 10.5763 104.441 10.8275C105.22 11.0722 105.809 11.4844 106.209 12.064C106.614 12.6436 106.817 13.4325 106.817 14.4308C106.817 15.2229 106.659 15.9346 106.344 16.5657C106.035 17.1969 105.536 17.696 104.846 18.0631C104.157 18.4302 103.256 18.6137 102.142 18.6137L103.368 17.4545L105.243 20.2174C105.532 20.6424 105.841 21.0997 106.17 21.5891C106.498 22.0721 106.817 22.5455 107.126 23.0092C107.442 23.4665 107.719 23.8722 107.957 24.2264H104.354C104.006 23.6854 103.671 23.167 103.349 22.6711C103.027 22.1752 102.715 21.6922 102.412 21.222L100.18 17.7057L102.064 19.1451H98.8667V16.8749H101.166C101.681 16.8749 102.113 16.8137 102.46 16.6913C102.815 16.5625 103.082 16.3468 103.262 16.0441C103.442 15.7414 103.533 15.326 103.533 14.7979C103.533 14.405 103.475 14.0895 103.359 13.8512C103.243 13.6064 103.085 13.4164 102.885 13.2812C102.692 13.146 102.473 13.0558 102.228 13.0107C101.99 12.9656 101.749 12.9431 101.504 12.9431H97.1761L99.4366 10.9531C99.4366 11.7323 99.4366 12.4794 99.4366 13.1943C99.4366 13.9027 99.4366 14.6916 99.4366 15.5611V19.7343C99.4366 20.5973 99.4366 21.3766 99.4366 22.0721C99.4366 22.7677 99.4366 23.4858 99.4366 24.2264H96.3163ZM113.374 24.2264C113.374 23.4858 113.374 22.7677 113.374 22.0721C113.374 21.3766 113.374 20.5973 113.374 19.7343V15.5611C113.374 14.6723 113.374 13.8705 113.374 13.1556C113.374 12.4407 113.374 11.7066 113.374 10.9531L114.572 13.2232H112.746C112.018 13.2232 111.374 13.2232 110.814 13.2232C110.254 13.2232 109.719 13.2232 109.211 13.2232V10.4507H120.697V13.2232C120.194 13.2232 119.663 13.2232 119.103 13.2232C118.542 13.2232 117.895 13.2232 117.161 13.2232H115.335L116.543 10.9531C116.543 11.7066 116.543 12.4407 116.543 13.1556C116.543 13.8705 116.543 14.6723 116.543 15.5611V19.7343C116.543 20.5973 116.543 21.3766 116.543 22.0721C116.543 22.7677 116.543 23.4858 116.543 24.2264H113.374ZM123.315 24.2264C123.315 23.4858 123.315 22.7677 123.315 22.0721C123.315 21.3766 123.315 20.5973 123.315 19.7343V15.0587C123.315 14.17 123.315 13.3681 123.315 12.6533C123.315 11.9384 123.315 11.2042 123.315 10.4507H132.463V13.0494C131.871 13.0494 131.233 13.0494 130.55 13.0494C129.874 13.0494 129.076 13.0494 128.155 13.0494H124.909L126.425 10.9531C126.425 11.7066 126.425 12.4407 126.425 13.1556C126.425 13.8705 126.425 14.6723 126.425 15.5611V19.232C126.425 20.0885 126.425 20.8678 126.425 21.5698C126.425 22.2654 126.425 22.9834 126.425 23.7241L125.112 21.6278H128.387C129.153 21.6278 129.877 21.6278 130.56 21.6278C131.249 21.6278 131.913 21.6278 132.55 21.6278V24.2264H123.315ZM125.701 18.4881V16.0731H128.222C129.072 16.0731 129.8 16.0731 130.406 16.0731C131.011 16.0731 131.594 16.0731 132.154 16.0731V18.4881C131.562 18.4881 130.963 18.4881 130.357 18.4881C129.752 18.4881 129.04 18.4881 128.222 18.4881H125.701Z" fill="white"/>
</svg>
