<svg preserveAspectRatio="xMidYMax meet" viewBox="0 0 49 732" fill="none" xmlns="http://www.w3.org/2000/svg">
<g opacity="0.2">
<mask id="path-1-outside-1_2_76" maskUnits="userSpaceOnUse" x="0" y="0" width="49" height="732" fill="black">
<rect fill="white" width="49" height="732"/>
<path d="M47 730.776H2.2L2.2 715.096L41.24 707.352V706.2L2.2 698.456L2.2 682.776H47V690.968H8.408V692.12L47 699.8V713.752L8.408 721.432V722.584H47V730.776ZM47.896 650.53C47.896 656.162 46.36 660.642 43.288 663.97C40.1733 667.298 35.736 668.962 29.976 668.962H19.224C13.464 668.962 9.048 667.298 5.976 663.97C2.86133 660.642 1.304 656.162 1.304 650.53C1.304 644.898 2.86133 640.418 5.976 637.09C9.048 633.762 13.464 632.098 19.224 632.098H29.976C35.736 632.098 40.1733 633.762 43.288 637.09C46.36 640.418 47.896 644.898 47.896 650.53ZM40.344 650.53C40.344 647.373 39.4267 644.92 37.592 643.17C35.7573 641.421 33.304 640.546 30.232 640.546H18.968C15.896 640.546 13.4427 641.421 11.608 643.17C9.77333 644.92 8.856 647.373 8.856 650.53C8.856 653.645 9.77333 656.098 11.608 657.89C13.4427 659.64 15.896 660.514 18.968 660.514H30.232C33.304 660.514 35.7573 659.64 37.592 657.89C39.4267 656.098 40.344 653.645 40.344 650.53ZM47 618.288H2.2V602.224L41.24 593.328V592.176H2.2V583.856H47V599.92L7.96 608.816V609.968H47L47 618.288ZM47 558.646H9.88V571.702H2.2L2.2 537.142H9.88V550.198H47V558.646ZM47 532.185L2.2 520.409L2.2 505.689L47 493.913V502.617L37.144 505.049V521.049L47 523.481L47 532.185ZM29.336 519.065V507.033L7.512 512.473V513.625L29.336 519.065ZM47 482.151H2.2L2.2 466.471L41.24 458.727V457.575L2.2 449.831L2.2 434.151H47V442.343H8.408V443.495L47 451.175V465.127L8.408 472.807V473.959H47V482.151ZM47.896 401.906C47.896 407.538 46.36 412.018 43.288 415.346C40.1733 418.674 35.736 420.338 29.976 420.338H19.224C13.464 420.338 9.048 418.674 5.976 415.346C2.86133 412.018 1.304 407.538 1.304 401.906C1.304 396.274 2.86133 391.794 5.976 388.466C9.048 385.138 13.464 383.474 19.224 383.474H29.976C35.736 383.474 40.1733 385.138 43.288 388.466C46.36 391.794 47.896 396.274 47.896 401.906ZM40.344 401.906C40.344 398.748 39.4267 396.295 37.592 394.546C35.7573 392.796 33.304 391.922 30.232 391.922H18.968C15.896 391.922 13.4427 392.796 11.608 394.546C9.77333 396.295 8.856 398.748 8.856 401.906C8.856 405.02 9.77333 407.474 11.608 409.266C13.4427 411.015 15.896 411.89 18.968 411.89H30.232C33.304 411.89 35.7573 411.015 37.592 409.266C39.4267 407.474 40.344 405.02 40.344 401.906ZM47.896 354.112C47.896 357.568 47.2773 360.618 46.04 363.264C44.8027 365.909 43.032 367.978 40.728 369.472C38.424 370.965 35.6507 371.712 32.408 371.712H30.616L30.616 363.392H32.408C35.096 363.392 37.1227 362.56 38.488 360.896C39.8107 359.232 40.472 356.97 40.472 354.112C40.472 351.21 39.896 349.056 38.744 347.648C37.592 346.197 36.12 345.472 34.328 345.472C33.0907 345.472 32.088 345.834 31.32 346.56C30.552 347.242 29.9333 348.266 29.464 349.632C28.952 350.954 28.4827 352.576 28.056 354.496L27.736 355.968C27.0533 359.04 26.2 361.685 25.176 363.904C24.1093 366.08 22.7227 367.765 21.016 368.96C19.3093 370.112 17.0907 370.688 14.36 370.688C11.6293 370.688 9.304 370.048 7.384 368.768C5.42133 367.445 3.928 365.61 2.904 363.264C1.83733 360.874 1.304 358.08 1.304 354.88C1.304 351.68 1.85866 348.842 2.968 346.368C4.03466 343.85 5.656 341.888 7.832 340.48C9.96533 339.029 12.6533 338.304 15.896 338.304H17.816L17.816 346.624H15.896C14.1893 346.624 12.824 346.965 11.8 347.648C10.7333 348.288 9.96533 349.226 9.496 350.464C8.984 351.701 8.728 353.173 8.728 354.88C8.728 357.44 9.21866 359.338 10.2 360.576C11.1387 361.77 12.44 362.368 14.104 362.368C15.2133 362.368 16.152 362.09 16.92 361.536C17.688 360.938 18.328 360.064 18.84 358.912C19.352 357.76 19.8 356.288 20.184 354.496L20.504 353.024C21.1867 349.824 22.0613 347.05 23.128 344.704C24.1947 342.314 25.6027 340.458 27.352 339.136C29.1013 337.813 31.3413 337.152 34.072 337.152C36.8027 337.152 39.2133 337.856 41.304 339.264C43.352 340.629 44.9733 342.592 46.168 345.152C47.32 347.669 47.896 350.656 47.896 354.112ZM47.896 286.249C47.896 289.705 47.2773 292.756 46.04 295.401C44.8027 298.046 43.032 300.116 40.728 301.609C38.424 303.102 35.6507 303.849 32.408 303.849H30.616V295.529H32.408C35.096 295.529 37.1227 294.697 38.488 293.033C39.8107 291.369 40.472 289.108 40.472 286.249C40.472 283.348 39.896 281.193 38.744 279.785C37.592 278.334 36.12 277.609 34.328 277.609C33.0907 277.609 32.088 277.972 31.32 278.697C30.552 279.38 29.9333 280.404 29.464 281.769C28.952 283.092 28.4827 284.713 28.056 286.633L27.736 288.105C27.0533 291.177 26.2 293.822 25.176 296.041C24.1093 298.217 22.7227 299.902 21.016 301.097C19.3093 302.249 17.0907 302.825 14.36 302.825C11.6293 302.825 9.304 302.185 7.384 300.905C5.42133 299.582 3.928 297.748 2.904 295.401C1.83733 293.012 1.304 290.217 1.304 287.017C1.304 283.817 1.85866 280.98 2.968 278.505C4.03466 275.988 5.656 274.025 7.832 272.617C9.96533 271.166 12.6533 270.441 15.896 270.441H17.816V278.761H15.896C14.1893 278.761 12.824 279.102 11.8 279.785C10.7333 280.425 9.96533 281.364 9.496 282.601C8.984 283.838 8.728 285.31 8.728 287.017C8.728 289.577 9.21866 291.476 10.2 292.713C11.1387 293.908 12.44 294.505 14.104 294.505C15.2133 294.505 16.152 294.228 16.92 293.673C17.688 293.076 18.328 292.201 18.84 291.049C19.352 289.897 19.8 288.425 20.184 286.633L20.504 285.161C21.1867 281.961 22.0613 279.188 23.128 276.841C24.1947 274.452 25.6027 272.596 27.352 271.273C29.1013 269.95 31.3413 269.289 34.072 269.289C36.8027 269.289 39.2133 269.993 41.304 271.401C43.352 272.766 44.9733 274.729 46.168 277.289C47.32 279.806 47.896 282.793 47.896 286.249ZM47 256.589H2.2L2.2 227.788H9.88V248.14H20.568V229.58H28.248V248.14H39.32V227.404H47V256.589ZM47.896 197.471C47.896 201.14 47.2347 204.298 45.912 206.943C44.5467 209.546 42.6267 211.551 40.152 212.959C37.6347 214.324 34.6693 215.007 31.256 215.007H2.2L2.2 206.559H31.512C34.2427 206.559 36.3973 205.791 37.976 204.255C39.5547 202.676 40.344 200.415 40.344 197.471C40.344 194.527 39.5547 192.287 37.976 190.751C36.3973 189.172 34.2427 188.383 31.512 188.383H2.2V179.935H31.256C34.6693 179.935 37.6347 180.639 40.152 182.047C42.6267 183.412 44.5467 185.418 45.912 188.063C47.2347 190.666 47.896 193.802 47.896 197.471ZM47.896 127.149C47.896 130.605 47.2773 133.656 46.04 136.301C44.8027 138.946 43.032 141.016 40.728 142.509C38.424 144.002 35.6507 144.749 32.408 144.749H30.616V136.429H32.408C35.096 136.429 37.1227 135.597 38.488 133.933C39.8107 132.269 40.472 130.008 40.472 127.149C40.472 124.248 39.896 122.093 38.744 120.685C37.592 119.234 36.12 118.509 34.328 118.509C33.0907 118.509 32.088 118.872 31.32 119.597C30.552 120.28 29.9333 121.304 29.464 122.669C28.952 123.992 28.4827 125.613 28.056 127.533L27.736 129.005C27.0533 132.077 26.2 134.722 25.176 136.941C24.1093 139.117 22.7227 140.802 21.016 141.997C19.3093 143.149 17.0907 143.725 14.36 143.725C11.6293 143.725 9.304 143.085 7.384 141.805C5.42133 140.482 3.928 138.648 2.904 136.301C1.83733 133.912 1.304 131.117 1.304 127.917C1.304 124.717 1.85866 121.88 2.968 119.405C4.03466 116.888 5.656 114.925 7.832 113.517C9.96533 112.066 12.6533 111.341 15.896 111.341H17.816V119.661H15.896C14.1893 119.661 12.824 120.002 11.8 120.685C10.7333 121.325 9.96533 122.264 9.496 123.501C8.984 124.738 8.728 126.21 8.728 127.917C8.728 130.477 9.21866 132.376 10.2 133.613C11.1387 134.808 12.44 135.405 14.104 135.405C15.2133 135.405 16.152 135.128 16.92 134.573C17.688 133.976 18.328 133.101 18.84 131.949C19.352 130.797 19.8 129.325 20.184 127.533L20.504 126.061C21.1867 122.861 22.0613 120.088 23.128 117.741C24.1947 115.352 25.6027 113.496 27.352 112.173C29.1013 110.85 31.3413 110.189 34.072 110.189C36.8027 110.189 39.2133 110.893 41.304 112.301C43.352 113.666 44.9733 115.629 46.168 118.189C47.32 120.706 47.896 123.693 47.896 127.149ZM47 97.4885H2.2L2.2 89.0405H47V97.4885ZM47 63.8455H9.88V76.9015H2.2L2.2 42.3415H9.88V55.3975H47V63.8455ZM47 30.1885H2.2L2.2 1.38847H9.88L9.88 21.7405H20.568L20.568 3.18047H28.248V21.7405H39.32V1.00447H47V30.1885Z"/>
</mask>
<path d="M47 730.776V731.776H48V730.776H47ZM2.2 730.776H1.2V731.776H2.2V730.776ZM2.2 715.096L2.00543 714.115L1.2 714.275V715.096H2.2ZM41.24 707.352L41.4346 708.333L42.24 708.173V707.352H41.24ZM41.24 706.2H42.24V705.379L41.4346 705.219L41.24 706.2ZM2.2 698.456H1.2V699.277L2.00543 699.437L2.2 698.456ZM2.2 682.776V681.776H1.2V682.776H2.2ZM47 682.776H48V681.776H47V682.776ZM47 690.968V691.968H48V690.968H47ZM8.408 690.968V689.968H7.408V690.968H8.408ZM8.408 692.12H7.408V692.941L8.21282 693.101L8.408 692.12ZM47 699.8H48V698.979L47.1952 698.819L47 699.8ZM47 713.752L47.1952 714.733L48 714.573V713.752H47ZM8.408 721.432L8.21282 720.451L7.408 720.611V721.432H8.408ZM8.408 722.584H7.408V723.584H8.408V722.584ZM47 722.584H48V721.584H47V722.584ZM47 730.776V729.776H2.2V730.776V731.776H47V730.776ZM2.2 730.776H3.2L3.2 715.096H2.2H1.2L1.2 730.776H2.2ZM2.2 715.096L2.39457 716.077L41.4346 708.333L41.24 707.352L41.0454 706.371L2.00543 714.115L2.2 715.096ZM41.24 707.352H42.24V706.2H41.24H40.24V707.352H41.24ZM41.24 706.2L41.4346 705.219L2.39457 697.475L2.2 698.456L2.00543 699.437L41.0454 707.181L41.24 706.2ZM2.2 698.456H3.2L3.2 682.776H2.2H1.2L1.2 698.456H2.2ZM2.2 682.776V683.776H47V682.776V681.776H2.2V682.776ZM47 682.776H46V690.968H47H48V682.776H47ZM47 690.968V689.968H8.408V690.968V691.968H47V690.968ZM8.408 690.968H7.408V692.12H8.408H9.408V690.968H8.408ZM8.408 692.12L8.21282 693.101L46.8048 700.781L47 699.8L47.1952 698.819L8.60317 691.139L8.408 692.12ZM47 699.8H46V713.752H47H48V699.8H47ZM47 713.752L46.8048 712.771L8.21282 720.451L8.408 721.432L8.60317 722.413L47.1952 714.733L47 713.752ZM8.408 721.432H7.408V722.584H8.408H9.408V721.432H8.408ZM8.408 722.584V723.584H47V722.584V721.584H8.408V722.584ZM47 722.584H46V730.776H47H48V722.584H47ZM43.288 663.97L44.0181 664.654L44.0228 664.649L43.288 663.97ZM5.976 663.97L6.71082 663.292L6.70612 663.287L5.976 663.97ZM5.976 637.09L6.70614 637.774L6.7108 637.769L5.976 637.09ZM43.288 637.09L44.0228 636.412L44.0181 636.407L43.288 637.09ZM37.592 643.17L36.9019 643.894L36.9019 643.894L37.592 643.17ZM11.608 643.17L12.2981 643.894L12.2981 643.894L11.608 643.17ZM11.608 657.89L10.9092 658.606L10.9179 658.614L11.608 657.89ZM37.592 657.89L38.2821 658.614L38.2907 658.606L37.592 657.89ZM47.896 650.53H46.896C46.896 655.975 45.4157 660.191 42.5532 663.292L43.288 663.97L44.0228 664.649C47.3043 661.094 48.896 656.35 48.896 650.53H47.896ZM43.288 663.97L42.5579 663.287C39.6795 666.363 35.5369 667.962 29.976 667.962V668.962V669.962C35.9351 669.962 40.6672 668.234 44.0181 664.654L43.288 663.97ZM29.976 668.962V667.962H19.224V668.962V669.962H29.976V668.962ZM19.224 668.962V667.962C13.6624 667.962 9.54494 666.363 6.7108 663.292L5.976 663.97L5.24119 664.649C8.55106 668.234 13.2656 669.962 19.224 669.962V668.962ZM5.976 663.97L6.70612 663.287C3.80344 660.186 2.304 655.971 2.304 650.53H1.304H0.303997C0.303997 656.354 1.91922 661.099 5.24588 664.654L5.976 663.97ZM1.304 650.53H2.304C2.304 645.09 3.80344 640.875 6.70612 637.774L5.976 637.09L5.24588 636.407C1.91922 639.962 0.303997 644.707 0.303997 650.53H1.304ZM5.976 637.09L6.7108 637.769C9.54494 634.698 13.6624 633.098 19.224 633.098L19.224 632.098V631.098C13.2656 631.098 8.55106 632.827 5.24119 636.412L5.976 637.09ZM19.224 632.098L19.224 633.098H29.976V632.098V631.098H19.224V632.098ZM29.976 632.098V633.098C35.5369 633.098 39.6795 634.698 42.5579 637.774L43.288 637.09L44.0181 636.407C40.6672 632.827 35.9351 631.098 29.976 631.098V632.098ZM43.288 637.09L42.5532 637.769C45.4157 640.87 46.896 645.086 46.896 650.53H47.896H48.896C48.896 644.711 47.3043 639.967 44.0228 636.412L43.288 637.09ZM40.344 650.53H41.344C41.344 647.171 40.3611 644.429 38.2821 642.447L37.592 643.17L36.9019 643.894C38.4923 645.411 39.344 647.575 39.344 650.53H40.344ZM37.592 643.17L38.2821 642.447C36.2235 640.484 33.5033 639.546 30.232 639.546V640.546V641.546C33.1047 641.546 35.2912 642.358 36.9019 643.894L37.592 643.17ZM30.232 640.546V639.546H18.968V640.546V641.546H30.232V640.546ZM18.968 640.546V639.546C15.6967 639.546 12.9765 640.484 10.9179 642.447L11.608 643.17L12.2981 643.894C13.9088 642.358 16.0953 641.546 18.968 641.546V640.546ZM11.608 643.17L10.9179 642.447C8.83892 644.429 7.856 647.171 7.856 650.53H8.856H9.856C9.856 647.575 10.7077 645.411 12.2981 643.894L11.608 643.17ZM8.856 650.53H7.856C7.856 653.853 8.84181 656.587 10.9093 658.606L11.608 657.89L12.3067 657.175C10.7049 655.61 9.856 653.438 9.856 650.53H8.856ZM11.608 657.89L10.9179 658.614C12.9765 660.577 15.6967 661.514 18.968 661.514V660.514V659.514C16.0953 659.514 13.9088 658.703 12.2981 657.167L11.608 657.89ZM18.968 660.514V661.514H30.232V660.514V659.514H18.968V660.514ZM30.232 660.514V661.514C33.5033 661.514 36.2235 660.577 38.2821 658.614L37.592 657.89L36.9019 657.167C35.2912 658.703 33.1047 659.514 30.232 659.514V660.514ZM37.592 657.89L38.2907 658.606C40.3582 656.587 41.344 653.853 41.344 650.53H40.344H39.344C39.344 653.438 38.4951 655.61 36.8933 657.175L37.592 657.89ZM47 618.288V619.288H48V618.288H47ZM2.2 618.288H1.2V619.288H2.2V618.288ZM2.2 602.224L1.97782 601.249L1.2 601.427L1.2 602.224H2.2ZM41.24 593.328L41.4622 594.304L42.24 594.126V593.328H41.24ZM41.24 592.176H42.24V591.176H41.24V592.176ZM2.2 592.176H1.2V593.176H2.2V592.176ZM2.2 583.856V582.856H1.2V583.856H2.2ZM47 583.856H48V582.856H47V583.856ZM47 599.92L47.2222 600.896L48 600.718V599.92H47ZM7.96 608.816L7.73783 607.841L6.96 608.019V608.816H7.96ZM7.96 609.968H6.96V610.968H7.96V609.968ZM47 609.968H48V608.968H47V609.968ZM47 618.288V617.288H2.2V618.288V619.288H47V618.288ZM2.2 618.288H3.2V602.224H2.2H1.2V618.288H2.2ZM2.2 602.224L2.42217 603.2L41.4622 594.304L41.24 593.328L41.0178 592.353L1.97782 601.249L2.2 602.224ZM41.24 593.328H42.24V592.176H41.24H40.24V593.328H41.24ZM41.24 592.176V591.176H2.2V592.176V593.176H41.24V592.176ZM2.2 592.176H3.2V583.856H2.2H1.2V592.176H2.2ZM2.2 583.856V584.856H47V583.856V582.856H2.2V583.856ZM47 583.856H46V599.92H47H48V583.856H47ZM47 599.92L46.7778 598.945L7.73783 607.841L7.96 608.816L8.18217 609.792L47.2222 600.896L47 599.92ZM7.96 608.816H6.96V609.968H7.96H8.96V608.816H7.96ZM7.96 609.968V610.968H47V609.968V608.968H7.96V609.968ZM47 609.968H46L46 618.288H47H48L48 609.968H47ZM47 558.646V559.646H48V558.646H47ZM9.88 558.646V557.646H8.88V558.646H9.88ZM9.88 571.702V572.702H10.88V571.702H9.88ZM2.2 571.702H1.2V572.702H2.2V571.702ZM2.2 537.142V536.142H1.2V537.142H2.2ZM9.88 537.142H10.88V536.142H9.88V537.142ZM9.88 550.198H8.88V551.198H9.88L9.88 550.198ZM47 550.198H48V549.198H47V550.198ZM47 558.646V557.646H9.88V558.646V559.646H47V558.646ZM9.88 558.646H8.88L8.88 571.702H9.88H10.88V558.646H9.88ZM9.88 571.702V570.702H2.2V571.702V572.702H9.88V571.702ZM2.2 571.702H3.2L3.2 537.142H2.2H1.2L1.2 571.702H2.2ZM2.2 537.142V538.142H9.88V537.142V536.142H2.2V537.142ZM9.88 537.142H8.88L8.88 550.198H9.88H10.88V537.142H9.88ZM9.88 550.198L9.88 551.198H47V550.198V549.198H9.88V550.198ZM47 550.198H46V558.646H47H48V550.198H47ZM47 532.185L46.7458 533.153L48 533.482V532.185H47ZM2.2 520.409H1.2V521.181L1.94578 521.377L2.2 520.409ZM2.2 505.689L1.94578 504.722L1.2 504.918V505.689H2.2ZM47 493.913H48V492.617L46.7458 492.946L47 493.913ZM47 502.617L47.2396 503.588L48 503.401V502.617H47ZM37.144 505.049L36.9044 504.079L36.144 504.266V505.049H37.144ZM37.144 521.049H36.144V521.833L36.9044 522.02L37.144 521.049ZM47 523.481H48V522.698L47.2396 522.511L47 523.481ZM29.336 519.065L29.0941 520.036L30.336 520.345V519.065H29.336ZM29.336 507.033H30.336V505.754L29.0941 506.063L29.336 507.033ZM7.512 512.473L7.27013 511.503L6.512 511.692V512.473H7.512ZM7.512 513.625H6.512V514.407L7.27013 514.596L7.512 513.625ZM47 532.185L47.2542 531.218L2.45422 519.442L2.2 520.409L1.94578 521.377L46.7458 533.153L47 532.185ZM2.2 520.409H3.2L3.2 505.689H2.2H1.2L1.2 520.409H2.2ZM2.2 505.689L2.45422 506.657L47.2542 494.881L47 493.913L46.7458 492.946L1.94578 504.722L2.2 505.689ZM47 493.913H46V502.617H47H48V493.913H47ZM47 502.617L46.7604 501.647L36.9044 504.079L37.144 505.049L37.3836 506.02L47.2396 503.588L47 502.617ZM37.144 505.049H36.144V521.049H37.144H38.144V505.049H37.144ZM37.144 521.049L36.9044 522.02L46.7604 524.452L47 523.481L47.2396 522.511L37.3836 520.079L37.144 521.049ZM47 523.481H46L46 532.185H47H48L48 523.481H47ZM29.336 519.065H30.336V507.033H29.336H28.336V519.065H29.336ZM29.336 507.033L29.0941 506.063L7.27013 511.503L7.512 512.473L7.75386 513.444L29.5779 508.004L29.336 507.033ZM7.512 512.473H6.512V513.625H7.512H8.512V512.473H7.512ZM7.512 513.625L7.27013 514.596L29.0941 520.036L29.336 519.065L29.5779 518.095L7.75386 512.655L7.512 513.625ZM47 482.151V483.151H48V482.151H47ZM2.2 482.151H1.2V483.151H2.2V482.151ZM2.2 466.471L2.00543 465.49L1.2 465.65V466.471H2.2ZM41.24 458.727L41.4346 459.708L42.24 459.548V458.727H41.24ZM41.24 457.575H42.24V456.754L41.4346 456.594L41.24 457.575ZM2.2 449.831H1.2V450.652L2.00543 450.812L2.2 449.831ZM2.2 434.151V433.151H1.2V434.151H2.2ZM47 434.151H48V433.151H47V434.151ZM47 442.343V443.343H48V442.343H47ZM8.408 442.343V441.343H7.408V442.343H8.408ZM8.408 443.495H7.408V444.316L8.21282 444.476L8.408 443.495ZM47 451.175H48V450.354L47.1952 450.194L47 451.175ZM47 465.127L47.1952 466.108L48 465.948V465.127H47ZM8.408 472.807L8.21282 471.826L7.408 471.986V472.807H8.408ZM8.408 473.959H7.408V474.959H8.408V473.959ZM47 473.959H48V472.959H47V473.959ZM47 482.151V481.151H2.2V482.151V483.151H47V482.151ZM2.2 482.151H3.2L3.2 466.471H2.2H1.2L1.2 482.151H2.2ZM2.2 466.471L2.39457 467.452L41.4346 459.708L41.24 458.727L41.0454 457.746L2.00543 465.49L2.2 466.471ZM41.24 458.727H42.24V457.575H41.24H40.24V458.727H41.24ZM41.24 457.575L41.4346 456.594L2.39457 448.85L2.2 449.831L2.00543 450.812L41.0454 458.556L41.24 457.575ZM2.2 449.831H3.2L3.2 434.151H2.2H1.2L1.2 449.831H2.2ZM2.2 434.151V435.151H47V434.151V433.151H2.2V434.151ZM47 434.151H46V442.343H47H48V434.151H47ZM47 442.343V441.343H8.408V442.343V443.343H47V442.343ZM8.408 442.343H7.408V443.495H8.408H9.408V442.343H8.408ZM8.408 443.495L8.21282 444.476L46.8048 452.156L47 451.175L47.1952 450.194L8.60317 442.514L8.408 443.495ZM47 451.175H46V465.127H47H48V451.175H47ZM47 465.127L46.8048 464.146L8.21282 471.826L8.408 472.807L8.60317 473.788L47.1952 466.108L47 465.127ZM8.408 472.807H7.408V473.959H8.408H9.408V472.807H8.408ZM8.408 473.959V474.959H47V473.959V472.959H8.408V473.959ZM47 473.959H46V482.151H47H48V473.959H47ZM43.288 415.346L44.0181 416.029L44.0228 416.024L43.288 415.346ZM5.976 415.346L6.71082 414.667L6.70612 414.662L5.976 415.346ZM5.976 388.466L6.70614 389.149L6.7108 389.144L5.976 388.466ZM43.288 388.466L44.0228 387.787L44.0181 387.782L43.288 388.466ZM37.592 394.546L36.9019 395.269L36.9019 395.269L37.592 394.546ZM11.608 394.546L12.2981 395.269L12.2981 395.269L11.608 394.546ZM11.608 409.266L10.9092 409.981L10.9179 409.989L11.608 409.266ZM37.592 409.266L38.2821 409.989L38.2907 409.981L37.592 409.266ZM47.896 401.906H46.896C46.896 407.35 45.4157 411.566 42.5532 414.667L43.288 415.346L44.0228 416.024C47.3043 412.469 48.896 407.725 48.896 401.906H47.896ZM43.288 415.346L42.5579 414.662C39.6795 417.738 35.5369 419.338 29.976 419.338V420.338V421.338C35.9351 421.338 40.6672 419.609 44.0181 416.029L43.288 415.346ZM29.976 420.338V419.338H19.224V420.338V421.338H29.976V420.338ZM19.224 420.338V419.338C13.6624 419.338 9.54494 417.738 6.7108 414.667L5.976 415.346L5.24119 416.024C8.55106 419.609 13.2656 421.338 19.224 421.338V420.338ZM5.976 415.346L6.70612 414.662C3.80344 411.561 2.304 407.346 2.304 401.906H1.304H0.303997C0.303997 407.729 1.91922 412.474 5.24588 416.029L5.976 415.346ZM1.304 401.906H2.304C2.304 396.465 3.80344 392.25 6.70612 389.149L5.976 388.466L5.24588 387.782C1.91922 391.337 0.303997 396.082 0.303997 401.906H1.304ZM5.976 388.466L6.7108 389.144C9.54494 386.073 13.6624 384.474 19.224 384.474V383.474V382.474C13.2656 382.474 8.55106 384.202 5.24119 387.787L5.976 388.466ZM19.224 383.474V384.474H29.976V383.474V382.474H19.224V383.474ZM29.976 383.474V384.474C35.5369 384.474 39.6795 386.073 42.5579 389.149L43.288 388.466L44.0181 387.782C40.6672 384.202 35.9351 382.474 29.976 382.474V383.474ZM43.288 388.466L42.5532 389.144C45.4157 392.245 46.896 396.461 46.896 401.906H47.896H48.896C48.896 396.086 47.3043 391.342 44.0228 387.787L43.288 388.466ZM40.344 401.906H41.344C41.344 398.546 40.3611 395.804 38.2821 393.822L37.592 394.546L36.9019 395.269C38.4923 396.786 39.344 398.95 39.344 401.906H40.344ZM37.592 394.546L38.2821 393.822C36.2235 391.859 33.5033 390.922 30.232 390.922V391.922V392.922C33.1047 392.922 35.2912 393.733 36.9019 395.269L37.592 394.546ZM30.232 391.922V390.922H18.968V391.922V392.922H30.232V391.922ZM18.968 391.922V390.922C15.6967 390.922 12.9765 391.859 10.9179 393.822L11.608 394.546L12.2981 395.269C13.9088 393.733 16.0953 392.922 18.968 392.922V391.922ZM11.608 394.546L10.9179 393.822C8.83892 395.804 7.856 398.546 7.856 401.906H8.856H9.856C9.856 398.95 10.7077 396.786 12.2981 395.269L11.608 394.546ZM8.856 401.906H7.856C7.856 405.228 8.84181 407.962 10.9093 409.981L11.608 409.266L12.3067 408.55C10.7049 406.985 9.856 404.813 9.856 401.906H8.856ZM11.608 409.266L10.9179 409.989C12.9765 411.952 15.6967 412.89 18.968 412.89V411.89V410.89C16.0953 410.89 13.9088 410.078 12.2981 408.542L11.608 409.266ZM18.968 411.89V412.89H30.232V411.89V410.89H18.968V411.89ZM30.232 411.89V412.89C33.5033 412.89 36.2235 411.952 38.2821 409.989L37.592 409.266L36.9019 408.542C35.2912 410.078 33.1047 410.89 30.232 410.89V411.89ZM37.592 409.266L38.2907 409.981C40.3582 407.962 41.344 405.228 41.344 401.906H40.344H39.344C39.344 404.813 38.4951 406.985 36.8933 408.55L37.592 409.266ZM46.04 363.264L46.9458 363.687L46.9458 363.687L46.04 363.264ZM40.728 369.472L40.1841 368.632L40.1841 368.632L40.728 369.472ZM30.616 371.712H29.616V372.712H30.616V371.712ZM30.616 363.392V362.392H29.616V363.392H30.616ZM38.488 360.896L39.2611 361.53L39.266 361.524L39.2708 361.518L38.488 360.896ZM38.744 347.648L37.9609 348.269L37.9654 348.275L37.97 348.281L38.744 347.648ZM31.32 346.56L31.9844 347.307L31.9956 347.297L32.0066 347.287L31.32 346.56ZM29.464 349.632L30.3966 349.993L30.4035 349.975L30.4097 349.957L29.464 349.632ZM28.056 354.496L27.0798 354.279L27.0788 354.283L28.056 354.496ZM27.736 355.968L28.7122 356.184L28.7132 356.18L27.736 355.968ZM25.176 363.904L26.0739 364.344L26.0791 364.333L26.084 364.323L25.176 363.904ZM21.016 368.96L21.5755 369.788L21.5825 369.784L21.5895 369.779L21.016 368.96ZM7.384 368.768L6.82514 369.597L6.8293 369.6L7.384 368.768ZM2.904 363.264L3.82057 362.864L3.81714 362.856L2.904 363.264ZM2.968 346.368L3.88051 346.777L3.88473 346.767L3.88875 346.758L2.968 346.368ZM7.832 340.48L8.37525 341.319L8.38485 341.313L8.39431 341.306L7.832 340.48ZM17.816 338.304H18.816V337.304H17.816V338.304ZM17.816 346.624V347.624H18.816V346.624H17.816ZM11.8 347.648L12.3145 348.505L12.3349 348.493L12.3547 348.48L11.8 347.648ZM9.496 350.464L10.42 350.846L10.4257 350.832L10.431 350.818L9.496 350.464ZM10.2 360.576L10.9863 359.958L10.9835 359.954L10.2 360.576ZM16.92 361.536L17.5055 362.346L17.5199 362.336L17.5339 362.325L16.92 361.536ZM20.184 354.496L19.2068 354.283L19.2062 354.286L20.184 354.496ZM20.504 353.024L21.4812 353.236L21.482 353.232L20.504 353.024ZM23.128 344.704L24.0384 345.117L24.0411 345.111L23.128 344.704ZM27.352 339.136L26.7489 338.338L26.7489 338.338L27.352 339.136ZM41.304 339.264L40.7454 340.093L40.7493 340.096L41.304 339.264ZM46.168 345.152L47.0773 344.735L47.0742 344.729L46.168 345.152ZM47.896 354.112H46.896C46.896 357.448 46.2991 360.349 45.1342 362.84L46.04 363.264L46.9458 363.687C48.2555 360.887 48.896 357.687 48.896 354.112H47.896ZM46.04 363.264L45.1342 362.84C43.9709 365.327 42.3208 367.247 40.1841 368.632L40.728 369.472L41.2719 370.311C43.7432 368.709 45.6344 366.491 46.9458 363.687L46.04 363.264ZM40.728 369.472L40.1841 368.632C38.0695 370.003 35.4932 370.712 32.408 370.712V371.712V372.712C35.8082 372.712 38.7785 371.927 41.2719 370.311L40.728 369.472ZM32.408 371.712V370.712H30.616V371.712V372.712H32.408V371.712ZM30.616 371.712H31.616L31.616 363.392H30.616H29.616L29.616 371.712H30.616ZM30.616 363.392V364.392H32.408V363.392V362.392H30.616V363.392ZM32.408 363.392V364.392C35.3141 364.392 37.6596 363.482 39.2611 361.53L38.488 360.896L37.7149 360.261C36.5857 361.637 34.8779 362.392 32.408 362.392V363.392ZM38.488 360.896L39.2708 361.518C40.7759 359.624 41.472 357.118 41.472 354.112H40.472H39.472C39.472 356.822 38.8455 358.839 37.7052 360.273L38.488 360.896ZM40.472 354.112H41.472C41.472 351.108 40.8809 348.68 39.518 347.014L38.744 347.648L37.97 348.281C38.9111 349.431 39.472 351.312 39.472 354.112H40.472ZM38.744 347.648L39.5271 347.026C38.1928 345.345 36.4368 344.472 34.328 344.472V345.472V346.472C35.8032 346.472 36.9912 347.048 37.9609 348.269L38.744 347.648ZM34.328 345.472V344.472C32.8821 344.472 31.6184 344.902 30.6334 345.832L31.32 346.56L32.0066 347.287C32.5576 346.766 33.2992 346.472 34.328 346.472V345.472ZM31.32 346.56L30.6556 345.812C29.7175 346.646 29.0221 347.841 28.5183 349.306L29.464 349.632L30.4097 349.957C30.8446 348.692 31.3865 347.838 31.9844 347.307L31.32 346.56ZM29.464 349.632L28.5314 349.271C27.9959 350.654 27.5135 352.327 27.0798 354.279L28.056 354.496L29.0322 354.712C29.4518 352.824 29.9081 351.254 30.3966 349.993L29.464 349.632ZM28.056 354.496L27.0788 354.283L26.7588 355.755L27.736 355.968L28.7132 356.18L29.0332 354.708L28.056 354.496ZM27.736 355.968L26.7598 355.751C26.0884 358.772 25.255 361.346 24.268 363.484L25.176 363.904L26.084 364.323C27.145 362.024 28.0182 359.307 28.7122 356.184L27.736 355.968ZM25.176 363.904L24.2781 363.463C23.2736 365.513 21.9897 367.057 20.4425 368.14L21.016 368.96L21.5895 369.779C23.4557 368.472 24.9451 366.646 26.0739 364.344L25.176 363.904ZM21.016 368.96L20.4565 368.131C18.9612 369.14 16.9552 369.688 14.36 369.688V370.688V371.688C17.2261 371.688 19.6575 371.083 21.5755 369.788L21.016 368.96ZM14.36 370.688V369.688C11.7899 369.688 9.66621 369.087 7.9387 367.935L7.384 368.768L6.8293 369.6C8.94179 371.008 11.4688 371.688 14.36 371.688V370.688ZM7.384 368.768L7.94285 367.938C6.1507 366.73 4.775 365.051 3.82054 362.864L2.904 363.264L1.98746 363.663C3.08099 366.169 4.69197 368.159 6.82515 369.597L7.384 368.768ZM2.904 363.264L3.81714 362.856C2.81901 360.62 2.304 357.97 2.304 354.88H1.304H0.303997C0.303997 358.189 0.855649 361.128 1.99086 363.671L2.904 363.264ZM1.304 354.88H2.304C2.304 351.795 2.83829 349.102 3.88051 346.777L2.968 346.368L2.05549 345.958C0.87904 348.583 0.303997 351.564 0.303997 354.88H1.304ZM2.968 346.368L3.88875 346.758C4.88189 344.414 6.37667 342.612 8.37525 341.319L7.832 340.48L7.28875 339.64C4.93532 341.163 3.18744 343.287 2.04725 345.977L2.968 346.368ZM7.832 340.48L8.39431 341.306C10.3237 339.994 12.8023 339.304 15.896 339.304V338.304V337.304C12.5044 337.304 9.60696 338.063 7.26969 339.653L7.832 340.48ZM15.896 338.304V339.304H17.816V338.304V337.304H15.896V338.304ZM17.816 338.304H16.816L16.816 346.624H17.816H18.816L18.816 338.304H17.816ZM17.816 346.624L17.816 345.624H15.896L15.896 346.624V347.624H17.816V346.624ZM15.896 346.624L15.896 345.624C14.0657 345.624 12.4858 345.988 11.2453 346.815L11.8 347.648L12.3547 348.48C13.1622 347.941 14.313 347.624 15.896 347.624V346.624ZM11.8 347.648L11.2855 346.79C10.0134 347.553 9.10457 348.676 8.561 350.109L9.496 350.464L10.431 350.818C10.8261 349.777 11.4533 349.022 12.3145 348.505L11.8 347.648ZM9.496 350.464L8.57198 350.081C7.99811 351.468 7.728 353.076 7.728 354.88H8.728H9.728C9.728 353.269 9.96989 351.934 10.42 350.846L9.496 350.464ZM8.728 354.88H7.728C7.728 357.535 8.23132 359.703 9.4165 361.197L10.2 360.576L10.9835 359.954C10.206 358.974 9.728 357.344 9.728 354.88H8.728ZM10.2 360.576L9.41368 361.193C10.5617 362.654 12.1666 363.368 14.104 363.368V362.368V361.368C12.7134 361.368 11.7156 360.886 10.9863 359.958L10.2 360.576ZM14.104 362.368V363.368C15.3865 363.368 16.5393 363.044 17.5055 362.346L16.92 361.536L16.3345 360.725C15.7647 361.136 15.0402 361.368 14.104 361.368V362.368ZM16.92 361.536L17.5339 362.325C18.4647 361.601 19.1941 360.577 19.7538 359.318L18.84 358.912L17.9262 358.505C17.4619 359.55 16.9113 360.275 16.3061 360.746L16.92 361.536ZM18.84 358.912L19.7538 359.318C20.3034 358.081 20.7692 356.537 21.1618 354.705L20.184 354.496L19.2062 354.286C18.8308 356.038 18.4006 357.438 17.9262 358.505L18.84 358.912ZM20.184 354.496L21.1612 354.708L21.4812 353.236L20.504 353.024L19.5268 352.811L19.2068 354.283L20.184 354.496ZM20.504 353.024L21.482 353.232C22.1534 350.085 23.0083 347.383 24.0384 345.117L23.128 344.704L22.2176 344.29C21.1143 346.717 20.2199 349.562 19.526 352.815L20.504 353.024ZM23.128 344.704L24.0411 345.111C25.0523 342.846 26.3641 341.136 27.9551 339.933L27.352 339.136L26.7489 338.338C24.8412 339.78 23.337 341.782 22.2149 344.296L23.128 344.704ZM27.352 339.136L27.9551 339.933C29.492 338.771 31.5047 338.152 34.072 338.152V337.152V336.152C31.1779 336.152 28.7107 336.855 26.7489 338.338L27.352 339.136ZM34.072 337.152V338.152C36.621 338.152 38.8337 338.805 40.7454 340.093L41.304 339.264L41.8626 338.434C39.593 336.906 36.9843 336.152 34.072 336.152V337.152ZM41.304 339.264L40.7493 340.096C42.6234 341.345 44.133 343.155 45.2618 345.574L46.168 345.152L47.0742 344.729C45.8137 342.028 44.0806 339.913 41.8587 338.431L41.304 339.264ZM46.168 345.152L45.2587 345.568C46.338 347.926 46.896 350.764 46.896 354.112H47.896H48.896C48.896 350.547 48.302 347.412 47.0773 344.735L46.168 345.152ZM46.04 295.401L46.9458 295.825L46.9458 295.825L46.04 295.401ZM40.728 301.609L40.1841 300.77L40.1841 300.77L40.728 301.609ZM30.616 303.849H29.616V304.849H30.616V303.849ZM30.616 295.529V294.529H29.616V295.529H30.616ZM38.488 293.033L39.2611 293.667L39.266 293.661L39.2708 293.655L38.488 293.033ZM38.744 279.785L37.9609 280.407L37.9654 280.413L37.97 280.418L38.744 279.785ZM31.32 278.697L31.9844 279.444L31.9956 279.434L32.0066 279.424L31.32 278.697ZM29.464 281.769L30.3966 282.13L30.4035 282.112L30.4097 282.094L29.464 281.769ZM28.056 286.633L27.0798 286.416L27.0788 286.421L28.056 286.633ZM27.736 288.105L28.7122 288.322L28.7132 288.317L27.736 288.105ZM25.176 296.041L26.0739 296.481L26.0791 296.471L26.084 296.46L25.176 296.041ZM21.016 301.097L21.5755 301.926L21.5825 301.921L21.5895 301.916L21.016 301.097ZM7.384 300.905L6.82514 301.734L6.8293 301.737L7.384 300.905ZM2.904 295.401L3.82057 295.001L3.81714 294.993L2.904 295.401ZM2.968 278.505L3.88051 278.914L3.88473 278.905L3.88875 278.895L2.968 278.505ZM7.832 272.617L8.37525 273.457L8.38485 273.45L8.39431 273.444L7.832 272.617ZM17.816 270.441H18.816V269.441H17.816V270.441ZM17.816 278.761V279.761H18.816V278.761H17.816ZM11.8 279.785L12.3145 280.642L12.3349 280.63L12.3547 280.617L11.8 279.785ZM9.496 282.601L10.42 282.983L10.4257 282.97L10.431 282.956L9.496 282.601ZM10.2 292.713L10.9863 292.095L10.9835 292.092L10.2 292.713ZM16.92 293.673L17.5055 294.484L17.5199 294.473L17.5339 294.462L16.92 293.673ZM20.184 286.633L19.2068 286.421L19.2062 286.423L20.184 286.633ZM20.504 285.161L21.4812 285.373L21.482 285.37L20.504 285.161ZM23.128 276.841L24.0384 277.255L24.0411 277.249L23.128 276.841ZM27.352 271.273L26.7489 270.475L26.7489 270.475L27.352 271.273ZM41.304 271.401L40.7454 272.23L40.7493 272.233L41.304 271.401ZM46.168 277.289L47.0773 276.873L47.0742 276.866L46.168 277.289ZM47.896 286.249H46.896C46.896 289.585 46.2991 292.487 45.1342 294.977L46.04 295.401L46.9458 295.825C48.2555 293.025 48.896 289.825 48.896 286.249H47.896ZM46.04 295.401L45.1342 294.977C43.9709 297.464 42.3208 299.385 40.1841 300.77L40.728 301.609L41.2719 302.448C43.7432 300.846 45.6344 298.628 46.9458 295.825L46.04 295.401ZM40.728 301.609L40.1841 300.77C38.0695 302.14 35.4932 302.849 32.408 302.849V303.849V304.849C35.8082 304.849 38.7785 304.064 41.2719 302.448L40.728 301.609ZM32.408 303.849V302.849H30.616V303.849V304.849H32.408V303.849ZM30.616 303.849H31.616V295.529H30.616H29.616V303.849H30.616ZM30.616 295.529V296.529H32.408V295.529V294.529H30.616V295.529ZM32.408 295.529V296.529C35.3141 296.529 37.6596 295.619 39.2611 293.667L38.488 293.033L37.7149 292.399C36.5857 293.775 34.8779 294.529 32.408 294.529V295.529ZM38.488 293.033L39.2708 293.655C40.7759 291.762 41.472 289.256 41.472 286.249H40.472H39.472C39.472 288.959 38.8455 290.976 37.7052 292.411L38.488 293.033ZM40.472 286.249H41.472C41.472 283.245 40.8809 280.818 39.518 279.152L38.744 279.785L37.97 280.418C38.9111 281.568 39.472 283.45 39.472 286.249H40.472ZM38.744 279.785L39.5271 279.163C38.1928 277.483 36.4368 276.609 34.328 276.609V277.609V278.609C35.8032 278.609 36.9912 279.186 37.9609 280.407L38.744 279.785ZM34.328 277.609V276.609C32.8821 276.609 31.6184 277.04 30.6334 277.97L31.32 278.697L32.0066 279.424C32.5576 278.904 33.2992 278.609 34.328 278.609V277.609ZM31.32 278.697L30.6556 277.95C29.7175 278.784 29.0221 279.978 28.5183 281.444L29.464 281.769L30.4097 282.094C30.8446 280.829 31.3865 279.976 31.9844 279.444L31.32 278.697ZM29.464 281.769L28.5314 281.408C27.9959 282.792 27.5135 284.464 27.0798 286.416L28.056 286.633L29.0322 286.85C29.4518 284.962 29.9081 283.392 30.3966 282.13L29.464 281.769ZM28.056 286.633L27.0788 286.421L26.7588 287.893L27.736 288.105L28.7132 288.317L29.0332 286.845L28.056 286.633ZM27.736 288.105L26.7598 287.888C26.0884 290.909 25.255 293.483 24.268 295.622L25.176 296.041L26.084 296.46C27.145 294.161 28.0182 291.445 28.7122 288.322L27.736 288.105ZM25.176 296.041L24.2781 295.601C23.2736 297.65 21.9897 299.195 20.4425 300.278L21.016 301.097L21.5895 301.916C23.4557 300.61 24.9451 298.784 26.0739 296.481L25.176 296.041ZM21.016 301.097L20.4565 300.268C18.9612 301.278 16.9552 301.825 14.36 301.825V302.825V303.825C17.2261 303.825 19.6575 303.22 21.5755 301.926L21.016 301.097ZM14.36 302.825V301.825C11.7899 301.825 9.66621 301.225 7.9387 300.073L7.384 300.905L6.8293 301.737C8.94179 303.145 11.4688 303.825 14.36 303.825V302.825ZM7.384 300.905L7.94285 300.076C6.1507 298.868 4.775 297.188 3.82054 295.001L2.904 295.401L1.98746 295.801C3.08099 298.307 4.69197 300.297 6.82515 301.734L7.384 300.905ZM2.904 295.401L3.81714 294.993C2.81901 292.758 2.304 290.107 2.304 287.017H1.304H0.303997C0.303997 290.327 0.855649 293.266 1.99086 295.809L2.904 295.401ZM1.304 287.017H2.304C2.304 283.933 2.83829 281.239 3.88051 278.914L2.968 278.505L2.05549 278.096C0.87904 280.72 0.303997 283.701 0.303997 287.017H1.304ZM2.968 278.505L3.88875 278.895C4.88189 276.551 6.37667 274.75 8.37525 273.457L7.832 272.617L7.28875 271.777C4.93532 273.3 3.18744 275.424 2.04725 278.115L2.968 278.505ZM7.832 272.617L8.39431 273.444C10.3237 272.132 12.8023 271.441 15.896 271.441V270.441V269.441C12.5044 269.441 9.60696 270.201 7.26969 271.79L7.832 272.617ZM15.896 270.441V271.441H17.816V270.441V269.441H15.896V270.441ZM17.816 270.441H16.816V278.761H17.816H18.816V270.441H17.816ZM17.816 278.761V277.761H15.896V278.761V279.761H17.816V278.761ZM15.896 278.761V277.761C14.0657 277.761 12.4858 278.126 11.2453 278.953L11.8 279.785L12.3547 280.617C13.1622 280.079 14.313 279.761 15.896 279.761V278.761ZM11.8 279.785L11.2855 278.927C10.0134 279.691 9.10457 280.813 8.561 282.246L9.496 282.601L10.431 282.956C10.8261 281.914 11.4533 281.159 12.3145 280.642L11.8 279.785ZM9.496 282.601L8.57198 282.219C7.99811 283.606 7.728 285.214 7.728 287.017H8.728H9.728C9.728 285.407 9.96989 284.071 10.42 282.983L9.496 282.601ZM8.728 287.017H7.728C7.728 289.673 8.23132 291.84 9.4165 293.334L10.2 292.713L10.9835 292.092C10.206 291.111 9.728 289.481 9.728 287.017H8.728ZM10.2 292.713L9.41368 293.331C10.5617 294.792 12.1666 295.505 14.104 295.505V294.505V293.505C12.7134 293.505 11.7156 293.023 10.9863 292.095L10.2 292.713ZM14.104 294.505V295.505C15.3865 295.505 16.5393 295.181 17.5055 294.484L16.92 293.673L16.3345 292.862C15.7647 293.274 15.0402 293.505 14.104 293.505V294.505ZM16.92 293.673L17.5339 294.462C18.4647 293.738 19.1941 292.714 19.7538 291.455L18.84 291.049L17.9262 290.643C17.4619 291.688 16.9113 292.413 16.3061 292.884L16.92 293.673ZM18.84 291.049L19.7538 291.455C20.3034 290.219 20.7692 288.675 21.1618 286.843L20.184 286.633L19.2062 286.423C18.8308 288.175 18.4006 289.575 17.9262 290.643L18.84 291.049ZM20.184 286.633L21.1612 286.845L21.4812 285.373L20.504 285.161L19.5268 284.949L19.2068 286.421L20.184 286.633ZM20.504 285.161L21.482 285.37C22.1534 282.222 23.0083 279.521 24.0384 277.255L23.128 276.841L22.2176 276.427C21.1143 278.854 20.2199 281.7 19.526 284.952L20.504 285.161ZM23.128 276.841L24.0411 277.249C25.0523 274.984 26.3641 273.274 27.9551 272.071L27.352 271.273L26.7489 270.475C24.8412 271.918 23.337 273.92 22.2149 276.433L23.128 276.841ZM27.352 271.273L27.9551 272.071C29.492 270.909 31.5047 270.289 34.072 270.289V269.289V268.289C31.1779 268.289 28.7107 268.992 26.7489 270.475L27.352 271.273ZM34.072 269.289V270.289C36.621 270.289 38.8337 270.943 40.7454 272.23L41.304 271.401L41.8626 270.572C39.593 269.043 36.9843 268.289 34.072 268.289V269.289ZM41.304 271.401L40.7493 272.233C42.6234 273.482 44.133 275.293 45.2618 277.712L46.168 277.289L47.0742 276.866C45.8137 274.165 44.0806 272.05 41.8587 270.569L41.304 271.401ZM46.168 277.289L45.2587 277.705C46.338 280.064 46.896 282.902 46.896 286.249H47.896H48.896C48.896 282.684 48.302 279.549 47.0773 276.873L46.168 277.289ZM47 256.589V257.589H48V256.589H47ZM2.2 256.589H1.2V257.589H2.2V256.589ZM2.2 227.788V226.788H1.2V227.788H2.2ZM9.88 227.788H10.88V226.788H9.88V227.788ZM9.88 248.14H8.88V249.14H9.88V248.14ZM20.568 248.14V249.14H21.568V248.14H20.568ZM20.568 229.58V228.58H19.568V229.58H20.568ZM28.248 229.58H29.248V228.58H28.248V229.58ZM28.248 248.14H27.248V249.14H28.248V248.14ZM39.32 248.14V249.14H40.32V248.14H39.32ZM39.32 227.404V226.404H38.32V227.404H39.32ZM47 227.404H48V226.404H47V227.404ZM47 256.589V255.589H2.2V256.589V257.589H47V256.589ZM2.2 256.589H3.2L3.2 227.788H2.2H1.2L1.2 256.589H2.2ZM2.2 227.788V228.788H9.88V227.788V226.788H2.2V227.788ZM9.88 227.788H8.88L8.88 248.14H9.88H10.88V227.788H9.88ZM9.88 248.14V249.14H20.568V248.14V247.14H9.88V248.14ZM20.568 248.14H21.568V229.58H20.568H19.568V248.14H20.568ZM20.568 229.58V230.58H28.248V229.58V228.58H20.568V229.58ZM28.248 229.58H27.248V248.14H28.248H29.248V229.58H28.248ZM28.248 248.14V249.14H39.32V248.14V247.14H28.248V248.14ZM39.32 248.14H40.32V227.404H39.32H38.32V248.14H39.32ZM39.32 227.404V228.404H47V227.404V226.404H39.32V227.404ZM47 227.404H46V256.589H47H48V227.404H47ZM45.912 206.943L46.7975 207.408L46.8021 207.399L46.8064 207.39L45.912 206.943ZM40.152 212.959L40.6288 213.838L40.6377 213.833L40.6465 213.828L40.152 212.959ZM2.2 215.007H1.2V216.007H2.2V215.007ZM2.2 206.559V205.559H1.2V206.559H2.2ZM37.976 204.255L38.6734 204.972L38.6831 204.962L37.976 204.255ZM37.976 190.751L37.2688 191.458L37.2786 191.468L37.976 190.751ZM2.2 188.383H1.2V189.383H2.2V188.383ZM2.2 179.935V178.935H1.2V179.935H2.2ZM40.152 182.047L39.6638 182.92L39.6689 182.923L40.152 182.047ZM45.912 188.063L46.8035 187.61L46.8006 187.604L45.912 188.063ZM47.896 197.471H46.896C46.896 201.022 46.2561 204.019 45.0176 206.496L45.912 206.943L46.8064 207.39C48.2132 204.577 48.896 201.259 48.896 197.471H47.896ZM45.912 206.943L45.0265 206.478C43.747 208.917 41.9602 210.78 39.6575 212.09L40.152 212.959L40.6465 213.828C43.2931 212.322 45.3463 210.174 46.7975 207.408L45.912 206.943ZM40.152 212.959L39.6752 212.08C37.33 213.352 34.5347 214.007 31.256 214.007V215.007V216.007C34.804 216.007 37.9394 215.297 40.6288 213.838L40.152 212.959ZM31.256 215.007V214.007H2.2V215.007V216.007H31.256V215.007ZM2.2 215.007H3.2L3.2 206.559H2.2H1.2L1.2 215.007H2.2ZM2.2 206.559V207.559H31.512V206.559V205.559H2.2V206.559ZM31.512 206.559V207.559C34.4373 207.559 36.8656 206.731 38.6734 204.972L37.976 204.255L37.2786 203.538C35.9291 204.851 34.0481 205.559 31.512 205.559V206.559ZM37.976 204.255L38.6831 204.962C40.5033 203.142 41.344 200.593 41.344 197.471H40.344H39.344C39.344 200.237 38.606 202.211 37.2689 203.548L37.976 204.255ZM40.344 197.471H41.344C41.344 194.351 40.504 191.815 38.6734 190.034L37.976 190.751L37.2786 191.468C38.6054 192.759 39.344 194.703 39.344 197.471H40.344ZM37.976 190.751L38.6831 190.044C36.8766 188.237 34.4449 187.383 31.512 187.383V188.383V189.383C34.0404 189.383 35.918 190.107 37.2689 191.458L37.976 190.751ZM31.512 188.383V187.383H2.2V188.383V189.383H31.512V188.383ZM2.2 188.383H3.2V179.935H2.2H1.2V188.383H2.2ZM2.2 179.935V180.935H31.256V179.935V178.935H2.2V179.935ZM31.256 179.935V180.935C34.5298 180.935 37.3209 181.609 39.6638 182.92L40.152 182.047L40.6402 181.174C37.9484 179.669 34.8088 178.935 31.256 178.935V179.935ZM40.152 182.047L39.6689 182.923C41.9606 184.187 43.7438 186.042 45.0234 188.522L45.912 188.063L46.8006 187.604C45.3495 184.793 43.2927 182.638 40.6351 181.171L40.152 182.047ZM45.912 188.063L45.0205 188.516C46.2559 190.947 46.896 193.92 46.896 197.471H47.896H48.896C48.896 193.684 48.2134 190.384 46.8035 187.61L45.912 188.063ZM46.04 136.301L46.9458 136.725L46.9458 136.725L46.04 136.301ZM40.728 142.509L40.1841 141.67L40.1841 141.67L40.728 142.509ZM30.616 144.749H29.616V145.749H30.616V144.749ZM30.616 136.429V135.429H29.616V136.429H30.616ZM38.488 133.933L39.2611 134.567L39.266 134.561L39.2708 134.555L38.488 133.933ZM38.744 120.685L37.9609 121.307L37.9654 121.313L37.97 121.318L38.744 120.685ZM31.32 119.597L31.9844 120.344L31.9956 120.334L32.0066 120.324L31.32 119.597ZM29.464 122.669L30.3966 123.03L30.4035 123.012L30.4097 122.994L29.464 122.669ZM28.056 127.533L27.0798 127.316L27.0788 127.321L28.056 127.533ZM27.736 129.005L28.7122 129.222L28.7132 129.217L27.736 129.005ZM25.176 136.941L26.0739 137.381L26.0791 137.371L26.084 137.36L25.176 136.941ZM21.016 141.997L21.5755 142.826L21.5825 142.821L21.5895 142.816L21.016 141.997ZM7.384 141.805L6.82514 142.634L6.8293 142.637L7.384 141.805ZM2.904 136.301L3.82057 135.901L3.81714 135.893L2.904 136.301ZM2.968 119.405L3.88051 119.814L3.88473 119.805L3.88875 119.795L2.968 119.405ZM7.832 113.517L8.37525 114.357L8.38485 114.35L8.39431 114.344L7.832 113.517ZM17.816 111.341H18.816V110.341H17.816V111.341ZM17.816 119.661V120.661H18.816V119.661H17.816ZM11.8 120.685L12.3145 121.542L12.3349 121.53L12.3547 121.517L11.8 120.685ZM9.496 123.501L10.42 123.883L10.4257 123.87L10.431 123.856L9.496 123.501ZM10.2 133.613L10.9863 132.995L10.9835 132.992L10.2 133.613ZM16.92 134.573L17.5055 135.384L17.5199 135.373L17.5339 135.362L16.92 134.573ZM20.184 127.533L19.2068 127.321L19.2062 127.323L20.184 127.533ZM20.504 126.061L21.4812 126.273L21.482 126.27L20.504 126.061ZM23.128 117.741L24.0384 118.155L24.0411 118.149L23.128 117.741ZM27.352 112.173L26.7489 111.375L26.7489 111.375L27.352 112.173ZM41.304 112.301L40.7454 113.13L40.7493 113.133L41.304 112.301ZM46.168 118.189L47.0773 117.773L47.0742 117.766L46.168 118.189ZM47.896 127.149H46.896C46.896 130.485 46.2991 133.387 45.1342 135.877L46.04 136.301L46.9458 136.725C48.2555 133.925 48.896 130.725 48.896 127.149H47.896ZM46.04 136.301L45.1342 135.877C43.9709 138.364 42.3208 140.285 40.1841 141.67L40.728 142.509L41.2719 143.348C43.7432 141.746 45.6344 139.528 46.9458 136.725L46.04 136.301ZM40.728 142.509L40.1841 141.67C38.0695 143.04 35.4932 143.749 32.408 143.749V144.749V145.749C35.8082 145.749 38.7785 144.964 41.2719 143.348L40.728 142.509ZM32.408 144.749V143.749H30.616V144.749V145.749H32.408V144.749ZM30.616 144.749H31.616V136.429H30.616H29.616V144.749H30.616ZM30.616 136.429V137.429H32.408V136.429V135.429H30.616V136.429ZM32.408 136.429V137.429C35.3141 137.429 37.6596 136.519 39.2611 134.567L38.488 133.933L37.7149 133.299C36.5857 134.675 34.8779 135.429 32.408 135.429V136.429ZM38.488 133.933L39.2708 134.555C40.7759 132.662 41.472 130.156 41.472 127.149H40.472H39.472C39.472 129.859 38.8455 131.876 37.7052 133.311L38.488 133.933ZM40.472 127.149H41.472C41.472 124.145 40.8809 121.718 39.518 120.052L38.744 120.685L37.97 121.318C38.9111 122.468 39.472 124.35 39.472 127.149H40.472ZM38.744 120.685L39.5271 120.063C38.1928 118.383 36.4368 117.509 34.328 117.509V118.509V119.509C35.8032 119.509 36.9912 120.086 37.9609 121.307L38.744 120.685ZM34.328 118.509V117.509C32.8821 117.509 31.6184 117.94 30.6334 118.87L31.32 119.597L32.0066 120.324C32.5576 119.804 33.2992 119.509 34.328 119.509V118.509ZM31.32 119.597L30.6556 118.85C29.7175 119.684 29.0221 120.878 28.5183 122.344L29.464 122.669L30.4097 122.994C30.8446 121.729 31.3865 120.876 31.9844 120.344L31.32 119.597ZM29.464 122.669L28.5314 122.308C27.9959 123.692 27.5135 125.364 27.0798 127.316L28.056 127.533L29.0322 127.75C29.4518 125.862 29.9081 124.292 30.3966 123.03L29.464 122.669ZM28.056 127.533L27.0788 127.321L26.7588 128.793L27.736 129.005L28.7132 129.217L29.0332 127.745L28.056 127.533ZM27.736 129.005L26.7598 128.788C26.0884 131.809 25.255 134.383 24.268 136.522L25.176 136.941L26.084 137.36C27.145 135.061 28.0182 132.345 28.7122 129.222L27.736 129.005ZM25.176 136.941L24.2781 136.501C23.2736 138.55 21.9897 140.095 20.4425 141.178L21.016 141.997L21.5895 142.816C23.4557 141.51 24.9451 139.684 26.0739 137.381L25.176 136.941ZM21.016 141.997L20.4565 141.168C18.9612 142.178 16.9552 142.725 14.36 142.725V143.725V144.725C17.2261 144.725 19.6575 144.12 21.5755 142.826L21.016 141.997ZM14.36 143.725V142.725C11.7899 142.725 9.66621 142.125 7.9387 140.973L7.384 141.805L6.8293 142.637C8.94179 144.045 11.4688 144.725 14.36 144.725V143.725ZM7.384 141.805L7.94285 140.976C6.1507 139.768 4.775 138.088 3.82054 135.901L2.904 136.301L1.98746 136.701C3.08099 139.207 4.69197 141.197 6.82515 142.634L7.384 141.805ZM2.904 136.301L3.81714 135.893C2.81901 133.658 2.304 131.007 2.304 127.917H1.304H0.303997C0.303997 131.227 0.855649 134.166 1.99086 136.709L2.904 136.301ZM1.304 127.917H2.304C2.304 124.833 2.83829 122.139 3.88051 119.814L2.968 119.405L2.05549 118.996C0.87904 121.62 0.303997 124.601 0.303997 127.917H1.304ZM2.968 119.405L3.88875 119.795C4.88189 117.451 6.37667 115.65 8.37525 114.357L7.832 113.517L7.28875 112.677C4.93532 114.2 3.18744 116.324 2.04725 119.015L2.968 119.405ZM7.832 113.517L8.39431 114.344C10.3237 113.032 12.8023 112.341 15.896 112.341V111.341V110.341C12.5044 110.341 9.60696 111.101 7.26969 112.69L7.832 113.517ZM15.896 111.341V112.341H17.816V111.341V110.341H15.896V111.341ZM17.816 111.341H16.816V119.661H17.816H18.816V111.341H17.816ZM17.816 119.661V118.661H15.896V119.661V120.661H17.816V119.661ZM15.896 119.661V118.661C14.0657 118.661 12.4858 119.026 11.2453 119.853L11.8 120.685L12.3547 121.517C13.1622 120.979 14.313 120.661 15.896 120.661V119.661ZM11.8 120.685L11.2855 119.827C10.0134 120.591 9.10457 121.713 8.561 123.146L9.496 123.501L10.431 123.856C10.8261 122.814 11.4533 122.059 12.3145 121.542L11.8 120.685ZM9.496 123.501L8.57198 123.119C7.99811 124.506 7.728 126.114 7.728 127.917H8.728H9.728C9.728 126.307 9.96989 124.971 10.42 123.883L9.496 123.501ZM8.728 127.917H7.728C7.728 130.573 8.23132 132.74 9.4165 134.234L10.2 133.613L10.9835 132.992C10.206 132.011 9.728 130.381 9.728 127.917H8.728ZM10.2 133.613L9.41368 134.231C10.5617 135.692 12.1666 136.405 14.104 136.405V135.405V134.405C12.7134 134.405 11.7156 133.923 10.9863 132.995L10.2 133.613ZM14.104 135.405V136.405C15.3865 136.405 16.5393 136.081 17.5055 135.384L16.92 134.573L16.3345 133.762C15.7647 134.174 15.0402 134.405 14.104 134.405V135.405ZM16.92 134.573L17.5339 135.362C18.4647 134.638 19.1941 133.614 19.7538 132.355L18.84 131.949L17.9262 131.543C17.4619 132.588 16.9113 133.313 16.3061 133.784L16.92 134.573ZM18.84 131.949L19.7538 132.355C20.3034 131.119 20.7692 129.575 21.1618 127.743L20.184 127.533L19.2062 127.323C18.8308 129.075 18.4006 130.475 17.9262 131.543L18.84 131.949ZM20.184 127.533L21.1612 127.745L21.4812 126.273L20.504 126.061L19.5268 125.849L19.2068 127.321L20.184 127.533ZM20.504 126.061L21.482 126.27C22.1534 123.122 23.0083 120.421 24.0384 118.155L23.128 117.741L22.2176 117.327C21.1143 119.754 20.2199 122.6 19.526 125.852L20.504 126.061ZM23.128 117.741L24.0411 118.149C25.0523 115.884 26.3641 114.174 27.9551 112.971L27.352 112.173L26.7489 111.375C24.8412 112.818 23.337 114.82 22.2149 117.333L23.128 117.741ZM27.352 112.173L27.9551 112.971C29.492 111.809 31.5047 111.189 34.072 111.189V110.189V109.189C31.1779 109.189 28.7107 109.892 26.7489 111.375L27.352 112.173ZM34.072 110.189V111.189C36.621 111.189 38.8337 111.843 40.7454 113.13L41.304 112.301L41.8626 111.472C39.593 109.943 36.9843 109.189 34.072 109.189V110.189ZM41.304 112.301L40.7493 113.133C42.6234 114.382 44.133 116.193 45.2618 118.612L46.168 118.189L47.0742 117.766C45.8137 115.065 44.0806 112.95 41.8587 111.469L41.304 112.301ZM46.168 118.189L45.2587 118.605C46.338 120.964 46.896 123.802 46.896 127.149H47.896H48.896C48.896 123.584 48.302 120.449 47.0773 117.773L46.168 118.189ZM47 97.4885V98.4885H48V97.4885H47ZM2.2 97.4885H1.2V98.4885H2.2V97.4885ZM2.2 89.0405V88.0405H1.2V89.0405H2.2ZM47 89.0405H48V88.0405H47V89.0405ZM47 97.4885V96.4885H2.2V97.4885V98.4885H47V97.4885ZM2.2 97.4885H3.2L3.2 89.0405H2.2H1.2L1.2 97.4885H2.2ZM2.2 89.0405L2.2 90.0405H47V89.0405V88.0405H2.2V89.0405ZM47 89.0405H46V97.4885H47H48V89.0405H47ZM47 63.8455V64.8455H48V63.8455H47ZM9.88 63.8455V62.8455H8.88V63.8455H9.88ZM9.88 76.9015V77.9015H10.88V76.9015H9.88ZM2.2 76.9015H1.2V77.9015H2.2V76.9015ZM2.2 42.3415V41.3415H1.2V42.3415H2.2ZM9.88 42.3415H10.88V41.3415H9.88V42.3415ZM9.88 55.3975H8.88V56.3975H9.88V55.3975ZM47 55.3975H48V54.3975H47V55.3975ZM47 63.8455V62.8455H9.88V63.8455V64.8455H47V63.8455ZM9.88 63.8455H8.88L8.88 76.9015H9.88H10.88V63.8455H9.88ZM9.88 76.9015V75.9015H2.2V76.9015V77.9015H9.88V76.9015ZM2.2 76.9015H3.2L3.2 42.3415H2.2H1.2L1.2 76.9015H2.2ZM2.2 42.3415V43.3415H9.88V42.3415V41.3415H2.2V42.3415ZM9.88 42.3415H8.88L8.88 55.3975H9.88H10.88V42.3415H9.88ZM9.88 55.3975V56.3975H47V55.3975V54.3975H9.88V55.3975ZM47 55.3975H46V63.8455H47H48V55.3975H47ZM47 30.1885V31.1885H48V30.1885H47ZM2.2 30.1885H1.2V31.1885H2.2V30.1885ZM2.2 1.38847V0.388474H1.2V1.38847H2.2ZM9.88 1.38847H10.88V0.388474H9.88V1.38847ZM9.88 21.7405H8.88V22.7405H9.88V21.7405ZM20.568 21.7405V22.7405H21.568V21.7405H20.568ZM20.568 3.18047V2.18047H19.568V3.18047H20.568ZM28.248 3.18047H29.248V2.18047H28.248V3.18047ZM28.248 21.7405H27.248V22.7405H28.248V21.7405ZM39.32 21.7405V22.7405H40.32V21.7405H39.32ZM39.32 1.00447V0.00447464H38.32V1.00447H39.32ZM47 1.00447H48V0.00447464H47V1.00447ZM47 30.1885V29.1885H2.2V30.1885V31.1885H47V30.1885ZM2.2 30.1885H3.2L3.2 1.38847H2.2H1.2L1.2 30.1885H2.2ZM2.2 1.38847V2.38847H9.88V1.38847V0.388474H2.2V1.38847ZM9.88 1.38847H8.88L8.88 21.7405H9.88H10.88L10.88 1.38847H9.88ZM9.88 21.7405V22.7405H20.568V21.7405V20.7405H9.88V21.7405ZM20.568 21.7405H21.568L21.568 3.18047H20.568H19.568L19.568 21.7405H20.568ZM20.568 3.18047V4.18047H28.248V3.18047V2.18047H20.568V3.18047ZM28.248 3.18047H27.248V21.7405H28.248H29.248V3.18047H28.248ZM28.248 21.7405V22.7405H39.32V21.7405V20.7405H28.248V21.7405ZM39.32 21.7405H40.32V1.00447H39.32H38.32V21.7405H39.32ZM39.32 1.00447V2.00447H47V1.00447V0.00447464H39.32V1.00447ZM47 1.00447H46V30.1885H47H48V1.00447H47Z" fill="url(#paint0_linear_2_76)" mask="url(#path-1-outside-1_2_76)"/>
</g>
<defs>
<linearGradient id="paint0_linear_2_76" x1="25" y1="-2" x2="25" y2="735" gradientUnits="userSpaceOnUse">
<stop stop-color="#DDC9EB"/>
<stop offset="0.216346" stop-color="white" stop-opacity="0.5"/>
<stop offset="0.442308" stop-color="#EFE5F6"/>
<stop offset="0.692308" stop-color="#DDC9EB" stop-opacity="0.5"/>
<stop offset="1" stop-color="white"/>
</linearGradient>
</defs>
</svg>
