<svg width="503" height="532" viewBox="0 0 503 532" fill="none" xmlns="http://www.w3.org/2000/svg">
<circle opacity="0.5" cx="230.375" cy="287.531" r="149" stroke="white" stroke-width="2"/>
<circle cx="443.374" cy="423.531" r="4" fill="white"/>
<path d="M9.44088 104.379L8.72419 103.235L10.2191 102.299L4.96341 93.9092L3.46851 94.8456L2.75183 93.7016L8.10601 90.3475C8.72634 89.9589 9.34557 89.7267 9.96368 89.651C10.592 89.569 11.1657 89.6485 11.6849 89.8897C12.208 90.1143 12.6383 90.4961 12.9759 91.035L13.0524 91.1571C13.3645 91.6554 13.5259 92.1278 13.5366 92.5742C13.5408 93.0105 13.4681 93.403 13.3184 93.7517C13.1623 94.0902 12.9826 94.3798 12.7793 94.6204L12.9131 94.8339C13.2055 94.7357 13.5464 94.6921 13.9356 94.7031C14.3185 94.704 14.7034 94.8098 15.0903 95.0206C15.4874 95.2249 15.842 95.5763 16.1542 96.0746L16.2497 96.2271C16.6128 96.8068 16.7858 97.3994 16.7686 98.0048C16.7552 98.5938 16.5746 99.153 16.2266 99.6825C15.8824 100.196 15.4001 100.646 14.7798 101.035L9.44088 104.379ZM11.4909 101.481L13.9163 99.9616C14.5875 99.5411 15.0023 99.0618 15.1607 98.5236C15.3192 97.9854 15.2296 97.4468 14.8919 96.9078L14.8059 96.7705C14.4683 96.2315 14.0228 95.9159 13.4693 95.8236C12.9159 95.7313 12.3036 95.8954 11.6324 96.3159L9.20705 97.8352L11.4909 101.481ZM8.48081 96.6759L10.952 95.1279C11.5621 94.7457 11.9547 94.2873 12.1297 93.7529C12.2983 93.2083 12.2233 92.6818 11.9048 92.1733L11.8093 92.0208C11.4844 91.5021 11.0433 91.2049 10.4861 91.1292C9.93268 91.0369 9.34581 91.1851 8.72547 91.5737L6.25431 93.1217L8.48081 96.6759ZM19.1158 98.3187L15.7216 85.5768L17.9792 84.1625L27.9631 92.7763L26.636 93.6077L24.1209 91.4237L19.5752 94.2713L20.4429 97.4873L19.1158 98.3187ZM19.1693 92.9113L23.0591 90.4746L17.4445 85.5807L17.231 85.7145L19.1693 92.9113ZM33.4071 89.6633C32.136 90.4596 30.8948 90.7274 29.6836 90.4666C28.466 90.1957 27.4144 89.3534 26.5289 87.9399L25 85.4993C24.1145 84.0857 23.8187 82.7771 24.1125 81.5735C24.4 80.3597 25.1793 79.3547 26.4505 78.5584C27.7115 77.7684 28.8974 77.5141 30.0081 77.7953C31.1291 78.0702 32.0718 78.8178 32.8362 80.0381L32.884 80.1143L31.6179 80.9075L31.5415 80.7854C31.0382 79.9821 30.4086 79.4631 29.6528 79.2286C28.9008 78.9775 28.0723 79.1354 27.1672 79.7024C26.2621 80.2694 25.7305 80.9918 25.5725 81.8696C25.408 82.7373 25.6379 83.6695 26.2622 84.6661L27.8294 87.1677C28.4537 88.1643 29.1953 88.783 30.0541 89.0238C30.9066 89.2544 31.7854 89.0863 32.6905 88.5193C33.5955 87.9523 34.1024 87.2808 34.2109 86.5048C34.3233 85.7122 34.1279 84.9142 33.6246 84.1108L33.4717 83.8668L34.7378 83.0736L34.862 83.2719C35.6265 84.4923 35.8878 85.6667 35.6461 86.7952C35.4144 87.9173 34.6681 88.8734 33.4071 89.6633ZM39.2011 85.7364L32.5121 75.0585L33.7934 74.2558L36.7079 78.9083L36.9215 78.7746L38.5222 71.2935L40.2306 70.2233L38.3353 78.7597L47.1027 80.7865L45.3485 81.8854L37.7242 80.0559L37.5106 80.1897L40.4825 84.9337L39.2011 85.7364ZM45.714 76.9623L45.0165 75.8488L49.5317 73.0203L50.2292 74.1338L45.714 76.9623ZM54.7829 75.9753L48.0939 65.2974L54.6684 61.1789L55.3946 62.3382L50.1015 65.6541L52.3375 69.2235L57.2036 66.1752L57.9298 67.3345L53.0637 70.3828L55.338 74.0133L60.7075 70.6497L61.4337 71.809L54.7829 75.9753ZM63.3782 70.5908L56.6892 59.913L59.1756 58.3554L69.0802 65.8932L69.2785 65.7689L63.0959 55.8996L64.362 55.1064L71.051 65.7843L68.5646 67.3419L58.6657 59.7793L58.4522 59.9131L64.6443 69.7977L63.3782 70.5908ZM73.0045 64.5605L72.2878 63.4165L73.7827 62.48L68.527 54.0903L67.0321 55.0267L66.3155 53.8827L70.4798 51.274C71.8832 50.3948 73.1892 50.0723 74.3979 50.3064C75.6167 50.5341 76.6879 51.3852 77.6117 52.8597L78.8539 54.8428C79.784 56.3275 80.0856 57.6679 79.7586 58.8639C79.4355 60.0434 78.5723 61.0727 77.1689 61.9518L73.0045 64.5605ZM75.0545 61.6621L76.4426 60.7925C77.4799 60.1427 78.1037 59.3979 78.314 58.5582C78.5243 57.7185 78.2949 56.7647 77.626 55.6969L76.3169 53.6071C75.6353 52.519 74.874 51.8914 74.033 51.7244C73.192 51.5573 72.2529 51.7987 71.2156 52.4485L69.8275 53.3181L75.0545 61.6621Z" fill="white"/>
<circle cx="44.2603" cy="444.465" r="4" fill="white"/>
<circle cx="53.3748" cy="88" r="4" fill="white"/>
<circle cx="408.374" cy="92" r="4" fill="white"/>
<path d="M415.394 76.3051C414.697 75.717 414.178 75.067 413.837 74.355C413.495 73.6431 413.373 72.9041 413.47 72.138C413.584 71.3704 413.958 70.6106 414.592 69.8586L414.836 69.5697L415.978 70.5331L415.734 70.822C415.061 71.6199 414.792 72.4134 414.927 73.2024C415.07 73.9823 415.508 74.6818 416.241 75.3008C416.994 75.9354 417.71 76.2494 418.391 76.2428C419.071 76.2362 419.628 75.9761 420.062 75.4625C420.364 75.1048 420.512 74.7431 420.506 74.3774C420.51 74.0194 420.406 73.6408 420.193 73.2415C419.988 72.8331 419.712 72.3966 419.367 71.932L418.802 71.1496C418.366 70.5308 418.022 69.9341 417.769 69.3594C417.516 68.7848 417.409 68.2233 417.447 67.675C417.503 67.1253 417.759 66.5799 418.216 66.0388C418.672 65.4977 419.2 65.1421 419.799 64.9722C420.406 64.8099 421.042 64.8284 421.707 65.0276C422.38 65.2345 423.037 65.6088 423.679 66.1505C424.331 66.7 424.816 67.306 425.136 67.9686C425.473 68.6299 425.603 69.3044 425.525 69.9922C425.464 70.6787 425.155 71.3521 424.598 72.0124L424.11 72.5902L422.968 71.6268L423.456 71.049C423.851 70.5812 424.067 70.1201 424.105 69.6655C424.152 69.2187 424.06 68.7795 423.827 68.3478C423.604 67.9239 423.272 67.5263 422.832 67.1548C422.199 66.6209 421.57 66.3335 420.945 66.2928C420.328 66.243 419.802 66.4748 419.369 66.9884C419.083 67.3278 418.933 67.6726 418.92 68.0228C418.907 68.3731 418.994 68.7446 419.181 69.1376C419.375 69.5214 419.641 69.9417 419.977 70.3985L420.542 71.181C421.001 71.7722 421.361 72.3591 421.624 72.9415C421.903 73.5224 422.024 74.104 421.989 74.6861C421.961 75.259 421.707 75.8298 421.227 76.3984C420.747 76.967 420.187 77.3424 419.547 77.5244C418.906 77.7063 418.224 77.696 417.5 77.4934C416.793 77.2893 416.091 76.8932 415.394 76.3051ZM420.788 80.5267L428.914 70.8966L434.843 75.8995L433.961 76.9451L429.187 72.9172L426.471 76.1364L430.859 79.8392L429.977 80.8848L425.589 77.182L422.826 80.4562L427.669 84.5421L426.786 85.5876L420.788 80.5267ZM431.872 90.2083C430.726 89.241 430.087 88.137 429.956 86.8962C429.843 85.6541 430.323 84.3956 431.399 83.1207L433.256 80.9196C434.332 79.6447 435.488 78.9634 436.724 78.8757C437.976 78.7866 439.176 79.2257 440.322 80.193C441.478 81.168 442.113 82.2766 442.226 83.5188C442.357 84.7595 441.885 86.0173 440.809 87.2922L438.952 89.4933C437.876 90.7682 436.712 91.4502 435.459 91.5393C434.223 91.627 433.028 91.1833 431.872 90.2083ZM432.743 89.1765C433.577 89.8807 434.433 90.1786 435.309 90.0703C436.193 89.9528 437.011 89.4492 437.761 88.5596L439.688 86.2759C440.439 85.3862 440.794 84.5003 440.753 83.6181C440.72 82.7268 440.286 81.929 439.452 81.2248C438.626 80.5283 437.772 80.2389 436.887 80.3564C436.011 80.4647 435.197 80.9637 434.447 81.8533L432.52 84.137C431.769 85.0267 431.41 85.9172 431.443 86.8085C431.484 87.6907 431.917 88.48 432.743 89.1765Z" fill="white"/>
<path d="M437.305 477.315L427.807 469.036L432.81 463.297L433.842 464.196L429.832 468.795L433.021 471.575L436.711 467.341L437.742 468.24L434.052 472.474L438.299 476.176L437.305 477.315ZM443.693 469.988L434.195 461.709L437.542 457.869C438.054 457.281 438.608 456.856 439.202 456.594C439.796 456.315 440.393 456.215 440.993 456.292C441.585 456.363 442.143 456.626 442.668 457.084L442.817 457.214C443.441 457.758 443.804 458.337 443.906 458.951C444.007 459.565 443.944 460.13 443.716 460.648L443.906 460.813C444.199 460.495 444.54 460.323 444.929 460.297C445.317 460.253 445.715 460.409 446.122 460.763L449.311 463.543L448.329 464.669L445.276 462.008C445.005 461.771 444.73 461.667 444.451 461.694C444.18 461.713 443.914 461.872 443.654 462.17L440.792 465.454L444.686 468.848L443.693 469.988ZM439.761 464.555L442.02 461.963C442.564 461.339 442.833 460.729 442.826 460.135C442.818 459.523 442.543 458.98 442 458.507L441.905 458.424C441.362 457.951 440.796 457.752 440.205 457.826C439.606 457.893 439.03 458.243 438.478 458.876L436.219 461.468L439.761 464.555ZM454.348 458.147C453.363 459.278 452.249 459.899 451.006 460.009C449.762 460.103 448.512 459.602 447.254 458.506L445.083 456.614C443.826 455.518 443.163 454.351 443.095 453.114C443.027 451.86 443.485 450.667 444.471 449.537C445.464 448.397 446.583 447.78 447.827 447.686C449.069 447.576 450.319 448.068 451.577 449.164L453.748 451.057C455.005 452.153 455.668 453.328 455.737 454.582C455.805 455.819 455.342 457.008 454.348 458.147ZM453.331 457.26C454.048 456.437 454.36 455.586 454.266 454.708C454.163 453.822 453.672 452.997 452.795 452.232L450.542 450.269C449.665 449.504 448.785 449.135 447.902 449.161C447.01 449.18 446.206 449.601 445.488 450.424C444.779 451.238 444.475 452.088 444.579 452.974C444.673 453.852 445.159 454.673 446.036 455.438L448.288 457.402C449.166 458.167 450.05 458.54 450.942 458.521C451.825 458.495 452.621 458.074 453.331 457.26ZM459.066 452.351L449.568 444.072L451.496 441.86L463.161 446.202L463.315 446.026L454.536 438.373L455.518 437.247L465.016 445.526L463.088 447.738L451.421 443.371L451.256 443.561L460.048 451.225L459.066 452.351ZM468.955 441.007L460.488 433.627L457.827 436.68L456.796 435.781L463.112 428.535L464.143 429.434L461.482 432.487L469.949 439.868L468.955 441.007ZM469.87 433.903L468.88 433.04L472.381 429.024L473.371 429.887L469.87 433.903ZM478.263 430.329L468.765 422.05L473.863 416.202L474.894 417.101L470.79 421.809L473.965 424.577L477.738 420.248L478.769 421.147L474.996 425.475L478.226 428.29L482.389 423.514L483.42 424.413L478.263 430.329ZM484.928 422.684L475.43 414.404L477.358 412.192L489.023 416.534L489.176 416.358L480.398 408.705L481.379 407.579L490.877 415.859L488.949 418.07L477.283 413.703L477.117 413.893L485.91 421.557L484.928 422.684ZM492.392 414.121L491.374 413.234L492.533 411.904L485.071 405.399L483.912 406.729L482.894 405.842L486.123 402.137C487.211 400.889 488.367 400.202 489.592 400.075C490.824 399.94 492.096 400.444 493.408 401.587L495.172 403.124C496.493 404.276 497.17 405.471 497.204 406.71C497.237 407.933 496.709 409.168 495.621 410.417L492.392 414.121ZM493.513 410.753L494.59 409.518C495.394 408.595 495.775 407.701 495.733 406.837C495.69 405.972 495.194 405.126 494.245 404.298L492.386 402.678C491.418 401.834 490.507 401.454 489.654 401.538C488.801 401.622 487.972 402.125 487.168 403.048L486.091 404.283L493.513 410.753Z" fill="white"/>
<path d="M2.89678 456.289L3.52417 455.093L5.0861 455.913L9.687 447.147L8.12507 446.327L8.75247 445.132L13.1036 447.416C14.5699 448.185 15.5063 449.151 15.9128 450.313C16.33 451.481 16.1342 452.835 15.3256 454.376L14.2381 456.448C13.4239 457.999 12.4178 458.935 11.2199 459.255C10.0382 459.569 8.71417 459.342 7.24787 458.572L2.89678 456.289ZM6.43327 456.6L7.88363 457.361C8.96742 457.93 9.925 458.094 10.7564 457.853C11.5877 457.611 12.2962 456.933 12.8818 455.817L14.0278 453.634C14.6245 452.497 14.7833 451.523 14.504 450.712C14.2247 449.902 13.5432 449.212 12.4594 448.643L11.0091 447.882L6.43327 456.6ZM13.991 462.112L19.8467 450.955L26.716 454.561L26.0803 455.772L20.5498 452.869L18.5923 456.599L23.6765 459.267L23.0408 460.478L17.9565 457.81L15.9656 461.603L21.5758 464.548L20.94 465.759L13.991 462.112ZM26.5682 468.998C25.7607 468.574 25.1135 468.051 24.6265 467.43C24.1396 466.808 23.8607 466.113 23.79 465.344C23.7355 464.57 23.9368 463.747 24.3941 462.876L24.5698 462.541L25.8927 463.236L25.717 463.57C25.2318 464.495 25.1403 465.328 25.4424 466.069C25.75 466.8 26.3289 467.388 27.1789 467.834C28.0502 468.291 28.8174 468.443 29.4807 468.29C30.1439 468.137 30.6317 467.763 30.944 467.168C31.1615 466.753 31.2281 466.368 31.1439 466.012C31.0703 465.662 30.8865 465.315 30.5927 464.971C30.3045 464.616 29.9413 464.249 29.5033 463.87L28.7833 463.228C28.2243 462.718 27.7593 462.21 27.3882 461.703C27.0171 461.197 26.7912 460.671 26.7107 460.128C26.6464 459.579 26.7787 458.991 27.1077 458.364C27.4368 457.737 27.8753 457.276 28.4232 456.981C28.9818 456.692 29.6068 456.572 30.2982 456.624C31.0002 456.68 31.7231 456.904 32.4669 457.294C33.2213 457.69 33.8263 458.177 34.2819 458.755C34.7537 459.328 35.0258 459.959 35.0981 460.647C35.1866 461.331 35.0301 462.055 34.6286 462.82L34.2772 463.489L32.9544 462.795L33.3057 462.126C33.5901 461.584 33.7019 461.087 33.641 460.635C33.5908 460.188 33.4056 459.779 33.0855 459.408C32.776 459.042 32.3662 458.725 31.8562 458.458C31.1231 458.073 30.4469 457.928 29.8278 458.023C29.2142 458.108 28.7513 458.448 28.439 459.043C28.2326 459.436 28.1609 459.805 28.2239 460.15C28.2869 460.494 28.4519 460.838 28.7189 461.182C28.9915 461.515 29.3415 461.868 29.7689 462.241L30.4889 462.883C31.0646 463.362 31.5433 463.857 31.925 464.369C32.323 464.876 32.5673 465.417 32.6579 465.994C32.7541 466.559 32.6293 467.171 32.2836 467.83C31.9378 468.489 31.472 468.976 30.886 469.292C30.3001 469.608 29.6318 469.745 28.8812 469.703C28.1467 469.657 27.3758 469.421 26.5682 468.998ZM32.7463 471.956L38.602 460.799L39.9408 461.502L34.0851 472.658L32.7463 471.956ZM40.4092 476.262C39.5804 475.827 38.9365 475.272 38.4774 474.598C38.0346 473.918 37.8082 473.149 37.7983 472.29C37.799 471.436 38.0586 470.516 38.5773 469.527L39.9157 466.977C40.6909 465.5 41.6724 464.586 42.8602 464.233C44.0536 463.87 45.3144 464.037 46.6426 464.735C47.9601 465.426 48.7746 466.314 49.086 467.399C49.3974 468.484 49.2353 469.633 48.5995 470.844L48.5577 470.924L47.2348 470.229L47.2934 470.118C47.5722 469.586 47.7248 469.063 47.751 468.549C47.7773 468.034 47.6498 467.554 47.3688 467.108C47.0933 466.652 46.6421 466.259 46.0152 465.93C45.0695 465.434 44.1777 465.338 43.3397 465.644C42.5073 465.939 41.8178 466.607 41.2713 467.648L39.8994 470.262C39.3528 471.303 39.1918 472.255 39.4164 473.119C39.6465 473.971 40.2397 474.649 41.196 475.15C42.131 475.641 42.9558 475.735 43.6703 475.433C44.3954 475.136 44.9894 474.546 45.4522 473.664L45.5944 473.393L42.2156 471.62L42.8179 470.472L47.5037 472.932L44.718 478.239L43.5067 477.603L44.1425 476.392L43.9194 476.275C43.6798 476.447 43.3952 476.589 43.0656 476.701C42.736 476.813 42.3543 476.843 41.9205 476.791C41.4867 476.74 40.983 476.563 40.4092 476.262ZM47.159 479.52L53.0147 468.364L55.6126 469.727L54.0892 482.08L54.2964 482.189L59.7087 471.877L61.0316 472.571L55.1759 483.728L52.578 482.365L54.1257 470.004L53.9026 469.887L48.4819 480.215L47.159 479.52Z" fill="white"/>
<path d="M185.31 528V515.4H186.822V520.89H187.074L192.402 515.4H194.418L188.28 521.628L194.634 528H192.564L187.074 522.402H186.822V528H185.31ZM200.323 528.252C198.823 528.252 197.623 527.82 196.723 526.956C195.835 526.08 195.391 524.808 195.391 523.14V520.26C195.391 518.592 195.835 517.326 196.723 516.462C197.623 515.586 198.823 515.148 200.323 515.148C201.835 515.148 203.035 515.586 203.923 516.462C204.823 517.326 205.273 518.592 205.273 520.26V523.14C205.273 524.808 204.823 526.08 203.923 526.956C203.035 527.82 201.835 528.252 200.323 528.252ZM200.323 526.902C201.415 526.902 202.261 526.578 202.861 525.93C203.461 525.27 203.761 524.358 203.761 523.194V520.206C203.761 519.042 203.461 518.136 202.861 517.488C202.261 516.828 201.415 516.498 200.323 516.498C199.243 516.498 198.403 516.828 197.803 517.488C197.203 518.136 196.903 519.042 196.903 520.206V523.194C196.903 524.358 197.203 525.27 197.803 525.93C198.403 526.578 199.243 526.902 200.323 526.902ZM206.741 528V526.65H208.505V516.75H206.741V515.4H211.655C213.311 515.4 214.589 515.82 215.489 516.66C216.401 517.5 216.857 518.79 216.857 520.53V522.87C216.857 524.622 216.401 525.918 215.489 526.758C214.589 527.586 213.311 528 211.655 528H206.741ZM210.017 526.632H211.655C212.879 526.632 213.803 526.332 214.427 525.732C215.051 525.132 215.363 524.202 215.363 522.942V520.476C215.363 519.192 215.051 518.256 214.427 517.668C213.803 517.08 212.879 516.786 211.655 516.786H210.017V526.632ZM218.105 528L221.993 515.4H224.657L228.545 528H226.979L226.007 524.814H220.643L219.671 528H218.105ZM221.021 523.446H225.611L223.451 516.318H223.199L221.021 523.446ZM230.433 528V515.4H235.527C236.307 515.4 236.991 515.538 237.579 515.814C238.179 516.078 238.647 516.462 238.983 516.966C239.319 517.458 239.487 518.052 239.487 518.748V518.946C239.487 519.774 239.289 520.428 238.893 520.908C238.497 521.388 238.029 521.712 237.489 521.88V522.132C237.921 522.144 238.275 522.288 238.551 522.564C238.839 522.828 238.983 523.23 238.983 523.77V528H237.489V523.95C237.489 523.59 237.387 523.314 237.183 523.122C236.991 522.93 236.697 522.834 236.301 522.834H231.945V528H230.433ZM231.945 521.466H235.383C236.211 521.466 236.847 521.268 237.291 520.872C237.747 520.464 237.975 519.9 237.975 519.18V519.054C237.975 518.334 237.753 517.776 237.309 517.38C236.865 516.972 236.223 516.768 235.383 516.768H231.945V521.466ZM244.691 528V516.768H240.641V515.4H250.253V516.768H246.203V528H244.691ZM252.177 528V515.4H259.935V516.768H253.689V520.98H259.431V522.348H253.689V526.632H260.025V528H252.177Z" fill="white"/>
<path d="M170.077 16.252C169.165 16.252 168.349 16.09 167.629 15.766C166.909 15.442 166.339 14.956 165.919 14.308C165.511 13.648 165.307 12.826 165.307 11.842V11.464H166.801V11.842C166.801 12.886 167.107 13.666 167.719 14.182C168.331 14.686 169.117 14.938 170.077 14.938C171.061 14.938 171.811 14.716 172.327 14.272C172.843 13.828 173.101 13.27 173.101 12.598C173.101 12.13 172.981 11.758 172.741 11.482C172.513 11.206 172.189 10.984 171.769 10.816C171.349 10.636 170.857 10.48 170.293 10.348L169.357 10.114C168.625 9.922 167.977 9.688 167.413 9.412C166.849 9.136 166.405 8.776 166.081 8.332C165.769 7.876 165.613 7.294 165.613 6.586C165.613 5.878 165.787 5.266 166.135 4.75C166.495 4.234 166.993 3.838 167.629 3.562C168.277 3.286 169.021 3.148 169.861 3.148C170.713 3.148 171.475 3.298 172.147 3.598C172.831 3.886 173.365 4.318 173.749 4.894C174.145 5.458 174.343 6.172 174.343 7.036V7.792H172.849V7.036C172.849 6.424 172.717 5.932 172.453 5.56C172.201 5.188 171.847 4.912 171.391 4.732C170.947 4.552 170.437 4.462 169.861 4.462C169.033 4.462 168.367 4.648 167.863 5.02C167.359 5.38 167.107 5.896 167.107 6.568C167.107 7.012 167.215 7.372 167.431 7.648C167.647 7.924 167.953 8.152 168.349 8.332C168.745 8.5 169.219 8.65 169.771 8.782L170.707 9.016C171.439 9.172 172.093 9.388 172.669 9.664C173.257 9.928 173.725 10.294 174.073 10.762C174.421 11.218 174.595 11.818 174.595 12.562C174.595 13.306 174.409 13.954 174.037 14.506C173.665 15.058 173.137 15.49 172.453 15.802C171.781 16.102 170.989 16.252 170.077 16.252ZM181.476 16.252C180.54 16.252 179.724 16.084 179.028 15.748C178.332 15.412 177.792 14.914 177.408 14.254C177.024 13.582 176.832 12.76 176.832 11.788V3.4H178.326V11.806C178.326 12.838 178.602 13.612 179.154 14.128C179.706 14.644 180.48 14.902 181.476 14.902C182.472 14.902 183.246 14.644 183.798 14.128C184.35 13.612 184.626 12.838 184.626 11.806V3.4H186.138V11.788C186.138 12.76 185.946 13.582 185.562 14.254C185.178 14.914 184.632 15.412 183.924 15.748C183.228 16.084 182.412 16.252 181.476 16.252ZM187.674 16L191.562 3.4L194.226 3.4L198.114 16H196.548L195.576 12.814H190.212L189.24 16H187.674ZM190.59 11.446H195.18L193.02 4.318H192.768L190.59 11.446ZM204.396 16V3.4L212.154 3.4V4.768H205.908V8.98H211.65V10.348H205.908V14.632H212.244V16H204.396ZM214.539 16V3.4L217.419 3.4L220.767 15.046H221.001L224.349 3.4L227.229 3.4V16H225.771V4.39H225.519L222.189 16H219.579L216.249 4.39H215.997V16H214.539ZM230.113 16V3.4L234.937 3.4C235.693 3.4 236.365 3.55 236.953 3.85C237.553 4.138 238.027 4.552 238.375 5.092C238.723 5.632 238.897 6.286 238.897 7.054V7.288C238.897 8.044 238.717 8.698 238.357 9.25C238.009 9.79 237.535 10.204 236.935 10.492C236.335 10.78 235.669 10.924 234.937 10.924H231.625V16H230.113ZM231.625 9.556H234.775C235.579 9.556 236.215 9.358 236.683 8.962C237.151 8.554 237.385 7.984 237.385 7.252V7.072C237.385 6.34 237.151 5.776 236.683 5.38C236.227 4.972 235.591 4.768 234.775 4.768H231.625V9.556ZM240.924 16V3.4H246.018C246.798 3.4 247.482 3.538 248.07 3.814C248.67 4.078 249.138 4.462 249.474 4.966C249.81 5.458 249.978 6.052 249.978 6.748V6.946C249.978 7.774 249.78 8.428 249.384 8.908C248.988 9.388 248.52 9.712 247.98 9.88V10.132C248.412 10.144 248.766 10.288 249.042 10.564C249.33 10.828 249.474 11.23 249.474 11.77V16H247.98V11.95C247.98 11.59 247.878 11.314 247.674 11.122C247.482 10.93 247.188 10.834 246.792 10.834L242.436 10.834V16H240.924ZM242.436 9.466L245.874 9.466C246.702 9.466 247.338 9.268 247.782 8.872C248.238 8.464 248.466 7.9 248.466 7.18V7.054C248.466 6.334 248.244 5.776 247.8 5.38C247.356 4.972 246.714 4.768 245.874 4.768H242.436V9.466ZM252.279 16V3.4L260.037 3.4V4.768H253.791V8.98H259.533V10.348H253.791V14.632H260.127V16H252.279ZM266.616 16.252C265.704 16.252 264.888 16.09 264.168 15.766C263.448 15.442 262.878 14.956 262.458 14.308C262.05 13.648 261.846 12.826 261.846 11.842V11.464H263.34V11.842C263.34 12.886 263.646 13.666 264.258 14.182C264.87 14.686 265.656 14.938 266.616 14.938C267.6 14.938 268.35 14.716 268.866 14.272C269.382 13.828 269.64 13.27 269.64 12.598C269.64 12.13 269.52 11.758 269.28 11.482C269.052 11.206 268.728 10.984 268.308 10.816C267.888 10.636 267.396 10.48 266.832 10.348L265.896 10.114C265.164 9.922 264.516 9.688 263.952 9.412C263.388 9.136 262.944 8.776 262.62 8.332C262.308 7.876 262.152 7.294 262.152 6.586C262.152 5.878 262.326 5.266 262.674 4.75C263.034 4.234 263.532 3.838 264.168 3.562C264.816 3.286 265.56 3.148 266.4 3.148C267.252 3.148 268.014 3.298 268.686 3.598C269.37 3.886 269.904 4.318 270.288 4.894C270.684 5.458 270.882 6.172 270.882 7.036V7.792H269.388V7.036C269.388 6.424 269.256 5.932 268.992 5.56C268.74 5.188 268.386 4.912 267.93 4.732C267.486 4.552 266.976 4.462 266.4 4.462C265.572 4.462 264.906 4.648 264.402 5.02C263.898 5.38 263.646 5.896 263.646 6.568C263.646 7.012 263.754 7.372 263.97 7.648C264.186 7.924 264.492 8.152 264.888 8.332C265.284 8.5 265.758 8.65 266.31 8.782L267.246 9.016C267.978 9.172 268.632 9.388 269.208 9.664C269.796 9.928 270.264 10.294 270.612 10.762C270.96 11.218 271.134 11.818 271.134 12.562C271.134 13.306 270.948 13.954 270.576 14.506C270.204 15.058 269.676 15.49 268.992 15.802C268.32 16.102 267.528 16.252 266.616 16.252ZM272.418 16L276.306 3.4H278.97L282.858 16H281.292L280.32 12.814L274.956 12.814L273.984 16H272.418ZM275.334 11.446L279.924 11.446L277.764 4.318H277.512L275.334 11.446Z" fill="white"/>
<path opacity="0.5" d="M170.374 151C170.374 151 77.8739 77.9999 53.874 88.5C29.874 99 113.293 232.513 191.374 301C270.743 370.616 426.874 447.5 441.374 425C455.874 402.5 377.874 313 377.874 313" stroke="url(#paint0_linear_7_153)" stroke-width="2"/>
<path opacity="0.5" d="M360.874 213C360.874 213 430.874 111 407.874 92.9999C384.874 75 249.167 166.479 173.374 245C108.638 312.065 24.3741 430.5 43.874 445.5C63.3739 460.5 150.374 414.5 150.374 414.5" stroke="url(#paint1_linear_7_153)" stroke-width="2"/>
<path opacity="0.5" d="M251.374 139.5C251.374 139.5 244.874 34 224.874 30C204.874 26 187.375 172.951 177.374 270C167.427 366.523 191.874 500 218.874 501.5C245.874 503 251.374 432 251.374 432" stroke="url(#paint2_linear_7_153)" stroke-width="2"/>
<circle cx="219.374" cy="502" r="4" fill="white"/>
<circle cx="223.374" cy="32" r="4" fill="white"/>
<path d="M205.05 283.448C203.322 283.448 201.797 283.139 200.474 282.52C199.152 281.901 198.117 281.016 197.37 279.864C196.624 278.712 196.25 277.325 196.25 275.704V274.808H200.41V275.704C200.41 277.048 200.826 278.061 201.658 278.744C202.49 279.405 203.621 279.736 205.05 279.736C206.501 279.736 207.578 279.448 208.282 278.872C209.008 278.296 209.37 277.56 209.37 276.664C209.37 276.045 209.189 275.544 208.826 275.16C208.485 274.776 207.973 274.467 207.29 274.232C206.629 273.976 205.818 273.741 204.858 273.528L204.122 273.368C202.586 273.027 201.264 272.6 200.154 272.088C199.066 271.555 198.224 270.861 197.626 270.008C197.05 269.155 196.762 268.045 196.762 266.68C196.762 265.315 197.082 264.152 197.722 263.192C198.384 262.211 199.301 261.464 200.474 260.952C201.669 260.419 203.066 260.152 204.666 260.152C206.266 260.152 207.685 260.429 208.922 260.984C210.181 261.517 211.162 262.328 211.866 263.416C212.592 264.483 212.954 265.827 212.954 267.448V268.408H208.794V267.448C208.794 266.595 208.624 265.912 208.282 265.4C207.962 264.867 207.493 264.483 206.874 264.248C206.256 263.992 205.52 263.864 204.666 263.864C203.386 263.864 202.437 264.109 201.818 264.6C201.221 265.069 200.922 265.72 200.922 266.552C200.922 267.107 201.061 267.576 201.338 267.96C201.637 268.344 202.074 268.664 202.65 268.92C203.226 269.176 203.962 269.4 204.858 269.592L205.594 269.752C207.194 270.093 208.581 270.531 209.754 271.064C210.949 271.597 211.877 272.301 212.538 273.176C213.2 274.051 213.53 275.171 213.53 276.536C213.53 277.901 213.178 279.107 212.474 280.152C211.792 281.176 210.81 281.987 209.53 282.584C208.272 283.16 206.778 283.448 205.05 283.448ZM223.081 283V260.6H237.481V264.44H227.305V269.784H236.585V273.624H227.305V279.16H237.673V283H223.081ZM255.839 283.448C254.005 283.448 252.426 283.117 251.103 282.456C249.802 281.773 248.799 280.813 248.095 279.576C247.413 278.317 247.071 276.835 247.071 275.128V260.6H251.295V275.256C251.295 276.621 251.679 277.699 252.447 278.488C253.237 279.277 254.367 279.672 255.839 279.672C257.311 279.672 258.431 279.277 259.199 278.488C259.989 277.699 260.383 276.621 260.383 275.256V260.6H264.607V275.128C264.607 276.835 264.255 278.317 263.551 279.576C262.869 280.813 261.866 281.773 260.543 282.456C259.242 283.117 257.674 283.448 255.839 283.448ZM149.532 315L146.588 292.6H150.78L152.956 312.056H153.532L156.348 292.6H163.644L166.46 312.056H167.036L169.212 292.6H173.404L170.46 315H163.164L160.284 295.096H159.708L156.828 315H149.532ZM182.89 315V292.6H197.29V296.44H187.114V301.784H196.394V305.624H187.114V311.16H197.482V315H182.89ZM206.369 315V311.288H209.313V296.312H206.369V292.6H217.889C219.254 292.6 220.438 292.835 221.441 293.304C222.465 293.752 223.254 294.403 223.809 295.256C224.385 296.088 224.673 297.091 224.673 298.264V298.584C224.673 299.608 224.481 300.451 224.097 301.112C223.713 301.752 223.254 302.253 222.721 302.616C222.209 302.957 221.718 303.203 221.249 303.352V303.928C221.718 304.056 222.23 304.301 222.785 304.664C223.34 305.005 223.809 305.507 224.193 306.168C224.598 306.829 224.801 307.693 224.801 308.76V309.08C224.801 310.317 224.513 311.384 223.937 312.28C223.361 313.155 222.561 313.827 221.537 314.296C220.534 314.765 219.361 315 218.017 315H206.369ZM213.537 311.16H217.505C218.422 311.16 219.158 310.936 219.713 310.488C220.289 310.04 220.577 309.4 220.577 308.568V308.248C220.577 307.416 220.3 306.776 219.745 306.328C219.19 305.88 218.444 305.656 217.505 305.656H213.537V311.16ZM213.537 301.816H217.441C218.316 301.816 219.03 301.592 219.585 301.144C220.161 300.696 220.449 300.077 220.449 299.288V298.968C220.449 298.157 220.172 297.539 219.617 297.112C219.062 296.664 218.337 296.44 217.441 296.44H213.537V301.816ZM242.435 315.448C240.707 315.448 239.182 315.139 237.859 314.52C236.536 313.901 235.502 313.016 234.755 311.864C234.008 310.712 233.635 309.325 233.635 307.704V306.808H237.795V307.704C237.795 309.048 238.211 310.061 239.043 310.744C239.875 311.405 241.006 311.736 242.435 311.736C243.886 311.736 244.963 311.448 245.667 310.872C246.392 310.296 246.755 309.56 246.755 308.664C246.755 308.045 246.574 307.544 246.211 307.16C245.87 306.776 245.358 306.467 244.675 306.232C244.014 305.976 243.203 305.741 242.243 305.528L241.507 305.368C239.971 305.027 238.648 304.6 237.539 304.088C236.451 303.555 235.608 302.861 235.011 302.008C234.435 301.155 234.147 300.045 234.147 298.68C234.147 297.315 234.467 296.152 235.107 295.192C235.768 294.211 236.686 293.464 237.859 292.952C239.054 292.419 240.451 292.152 242.051 292.152C243.651 292.152 245.07 292.429 246.307 292.984C247.566 293.517 248.547 294.328 249.251 295.416C249.976 296.483 250.339 297.827 250.339 299.448V300.408H246.179V299.448C246.179 298.595 246.008 297.912 245.667 297.4C245.347 296.867 244.878 296.483 244.259 296.248C243.64 295.992 242.904 295.864 242.051 295.864C240.771 295.864 239.822 296.109 239.203 296.6C238.606 297.069 238.307 297.72 238.307 298.552C238.307 299.107 238.446 299.576 238.723 299.96C239.022 300.344 239.459 300.664 240.035 300.92C240.611 301.176 241.347 301.4 242.243 301.592L242.979 301.752C244.579 302.093 245.966 302.531 247.139 303.064C248.334 303.597 249.262 304.301 249.923 305.176C250.584 306.051 250.915 307.171 250.915 308.536C250.915 309.901 250.563 311.107 249.859 312.152C249.176 313.176 248.195 313.987 246.915 314.584C245.656 315.16 244.163 315.448 242.435 315.448ZM260.465 315V292.6H264.689V315H260.465ZM280.487 315V296.44H273.959V292.6H291.239V296.44H284.711V315H280.487ZM300.515 315V292.6H314.915V296.44H304.739V301.784H314.019V305.624H304.739V311.16H315.107V315H300.515Z" fill="url(#paint3_linear_7_153)"/>
<defs>
<linearGradient id="paint0_linear_7_153" x1="60.548" y1="83.943" x2="436.152" y2="438.35" gradientUnits="userSpaceOnUse">
<stop stop-color="white"/>
<stop offset="0.360577" stop-color="white" stop-opacity="0.1"/>
<stop offset="0.576923" stop-color="white" stop-opacity="0.1"/>
<stop offset="1" stop-color="white"/>
</linearGradient>
<linearGradient id="paint1_linear_7_153" x1="398.523" y1="73.4972" x2="75.403" y2="473.598" gradientUnits="userSpaceOnUse">
<stop stop-color="white"/>
<stop offset="0.360577" stop-color="white" stop-opacity="0.1"/>
<stop offset="0.576923" stop-color="white" stop-opacity="0.1"/>
<stop offset="1" stop-color="white"/>
</linearGradient>
<linearGradient id="paint2_linear_7_153" x1="187.874" y1="146.5" x2="264.293" y2="163.264" gradientUnits="userSpaceOnUse">
<stop stop-color="white"/>
<stop offset="0.3045" stop-color="white" stop-opacity="0.1"/>
<stop offset="0.614658" stop-color="white" stop-opacity="0.1"/>
<stop offset="1" stop-color="white"/>
</linearGradient>
<linearGradient id="paint3_linear_7_153" x1="150.551" y1="285.638" x2="312.991" y2="285.577" gradientUnits="userSpaceOnUse">
<stop stop-color="#5004D4"/>
<stop offset="1" stop-color="#13D8E6"/>
</linearGradient>
</defs>
</svg>
