<svg width="24" height="24" viewBox="0 0 24 24" fill="none" xmlns="http://www.w3.org/2000/svg">
<path d="M7.539 22.5C16.596 22.5 21.5505 14.9955 21.5505 8.499C21.5525 8.288 21.5495 8.077 21.5415 7.866C22.5058 7.16737 23.3382 6.30293 24 5.313C23.0987 5.70941 22.144 5.97121 21.1665 6.09C22.1964 5.47456 22.9677 4.50602 23.337 3.3645C22.3699 3.93858 21.3108 4.34102 20.2065 4.554C19.4643 3.76354 18.4821 3.23988 17.4121 3.06414C16.3422 2.8884 15.2441 3.07038 14.288 3.58191C13.3319 4.09343 12.5712 4.90595 12.1237 5.89359C11.6761 6.88124 11.5668 7.9889 11.8125 9.045C9.85451 8.94729 7.93897 8.43887 6.19024 7.55275C4.44152 6.66663 2.89871 5.42262 1.662 3.9015C1.03437 4.98621 0.842926 6.26908 1.12651 7.48978C1.4101 8.71047 2.14747 9.77756 3.189 10.4745C2.40811 10.4493 1.64429 10.2396 0.96 9.8625V9.93C0.961909 11.0661 1.35573 12.1667 2.07498 13.0461C2.79424 13.9255 3.79488 14.5298 4.908 14.757C4.48541 14.8735 4.04885 14.9315 3.6105 14.9295C3.30138 14.9327 2.99275 14.9041 2.6895 14.844C3.00359 15.8224 3.61616 16.678 4.44125 17.2905C5.26634 17.9031 6.26253 18.2419 7.29 18.2595C5.54415 19.629 3.38887 20.3722 1.17 20.37C0.778948 20.3729 0.388119 20.3504 0 20.3025C2.25213 21.7387 4.8679 22.5012 7.539 22.5Z" fill="currentColor"/>
</svg>
